<ttFont>
    <TTGlyph name=".notdef" xMin="50" yMin="0" xMax="450" yMax="705">
      <contour>
        <pt x="50" y="705" on="1"/>
        <pt x="450" y="705" on="1"/>
        <pt x="450" y="0" on="1"/>
        <pt x="50" y="0" on="1"/>
      </contour>
      <contour>
        <pt x="400" y="50" on="1"/>
        <pt x="400" y="655" on="1"/>
        <pt x="100" y="655" on="1"/>
        <pt x="100" y="50" on="1"/>
      </contour>
    </TTGlyph>
    <TTGlyph name="A" xMin="90" yMin="200" xMax="379" yMax="705">
      <contour>
        <pt x="300" y="455" on="1"/>
        <pt x="306" y="517" on="0"/>
        <pt x="306" y="554" on="1"/>
        <pt x="306" y="583" on="0"/>
        <pt x="299" y="617" on="0"/>
        <pt x="286" y="636" on="0"/>
        <pt x="265" y="642" on="0"/>
        <pt x="251" y="642" on="1"/>
        <pt x="233" y="642" on="0"/>
        <pt x="207" y="630" on="0"/>
        <pt x="187" y="591" on="0"/>
        <pt x="174" y="517" on="0"/>
        <pt x="168" y="455" on="1"/>
        <pt x="166" y="425" on="0"/>
        <pt x="163" y="377" on="0"/>
        <pt x="163" y="358" on="1"/>
        <pt x="163" y="329" on="0"/>
        <pt x="170" y="292" on="0"/>
        <pt x="183" y="271" on="0"/>
        <pt x="204" y="263" on="0"/>
        <pt x="218" y="263" on="1"/>
        <pt x="237" y="263" on="0"/>
        <pt x="264" y="278" on="0"/>
        <pt x="282" y="320" on="0"/>
        <pt x="295" y="395" on="0"/>
      </contour>
      <contour>
        <pt x="375" y="459" on="1"/>
        <pt x="369" y="390" on="0"/>
        <pt x="351" y="292" on="0"/>
        <pt x="316" y="229" on="0"/>
        <pt x="258" y="200" on="0"/>
        <pt x="212" y="200" on="1"/>
        <pt x="144" y="200" on="0"/>
        <pt x="90" y="279" on="0"/>
        <pt x="90" y="368" on="1"/>
        <pt x="90" y="388" on="0"/>
        <pt x="93" y="433" on="0"/>
        <pt x="95" y="459" on="1"/>
        <pt x="101" y="525" on="0"/>
        <pt x="118" y="618" on="0"/>
        <pt x="153" y="678" on="0"/>
        <pt x="210" y="705" on="0"/>
        <pt x="256" y="705" on="1"/>
        <pt x="324" y="705" on="0"/>
        <pt x="379" y="629" on="0"/>
        <pt x="379" y="543" on="1"/>
        <pt x="379" y="524" on="0"/>
        <pt x="377" y="482" on="0"/>
      </contour>
    </TTGlyph>
    <TTGlyph name="AE" xMin="77" yMin="260" xMax="186" yMax="360">
      <contour>
        <pt x="77" y="260" on="1"/>
        <pt x="86" y="360" on="1"/>
        <pt x="186" y="360" on="1"/>
        <pt x="177" y="260" on="1"/>
      </contour>
    </TTGlyph>
    <TTGlyph name="Aacute" xMin="77" yMin="260" xMax="186" yMax="360">
      <contour>
        <pt x="77" y="260" on="1"/>
        <pt x="86" y="360" on="1"/>
        <pt x="186" y="360" on="1"/>
        <pt x="177" y="260" on="1"/>
      </contour>
    </TTGlyph>
    <TTGlyph name="Acircumflex" xMin="77" yMin="260" xMax="186" yMax="360">
      <contour>
        <pt x="77" y="260" on="1"/>
        <pt x="86" y="360" on="1"/>
        <pt x="186" y="360" on="1"/>
        <pt x="177" y="260" on="1"/>
      </contour>
    </TTGlyph>
    <TTGlyph name="Adieresis" xMin="77" yMin="260" xMax="186" yMax="360">
      <contour>
        <pt x="77" y="260" on="1"/>
        <pt x="86" y="360" on="1"/>
        <pt x="186" y="360" on="1"/>
        <pt x="177" y="260" on="1"/>
      </contour>
    </TTGlyph>
    <TTGlyph name="Agrave" xMin="77" yMin="260" xMax="186" yMax="360">
      <contour>
        <pt x="77" y="260" on="1"/>
        <pt x="86" y="360" on="1"/>
        <pt x="186" y="360" on="1"/>
        <pt x="177" y="260" on="1"/>
      </contour>
    </TTGlyph>
    <TTGlyph name="Aring" xMin="77" yMin="260" xMax="186" yMax="360">
      <contour>
        <pt x="77" y="260" on="1"/>
        <pt x="86" y="360" on="1"/>
        <pt x="186" y="360" on="1"/>
        <pt x="177" y="260" on="1"/>
      </contour>
    </TTGlyph>
    <TTGlyph name="Atilde" xMin="77" yMin="260" xMax="186" yMax="360">
      <contour>
        <pt x="77" y="260" on="1"/>
        <pt x="86" y="360" on="1"/>
        <pt x="186" y="360" on="1"/>
        <pt x="177" y="260" on="1"/>
      </contour>
    </TTGlyph>
    <TTGlyph name="B" xMin="101" yMin="205" xMax="342" yMax="700">
      <contour>
        <pt x="101" y="205" on="1"/>
        <pt x="107" y="271" on="1"/>
        <pt x="195" y="271" on="1"/>
        <pt x="227" y="629" on="1"/>
        <pt x="127" y="591" on="1"/>
        <pt x="133" y="662" on="1"/>
        <pt x="225" y="700" on="1"/>
        <pt x="308" y="700" on="1"/>
        <pt x="270" y="271" on="1"/>
        <pt x="342" y="271" on="1"/>
        <pt x="336" y="205" on="1"/>
      </contour>
    </TTGlyph>
    <TTGlyph name="C" xMin="73" yMin="205" xMax="346" yMax="705">
      <contour>
        <pt x="73" y="205" on="1"/>
        <pt x="80" y="276" on="1"/>
        <pt x="205" y="433" on="1"/>
        <pt x="225" y="459" on="0"/>
        <pt x="251" y="497" on="0"/>
        <pt x="266" y="531" on="0"/>
        <pt x="272" y="568" on="0"/>
        <pt x="272" y="593" on="1"/>
        <pt x="272" y="616" on="0"/>
        <pt x="248" y="641" on="0"/>
        <pt x="217" y="641" on="1"/>
        <pt x="193" y="641" on="0"/>
        <pt x="142" y="633" on="0"/>
        <pt x="124" y="629" on="1"/>
        <pt x="129" y="694" on="1"/>
        <pt x="132" y="694" on="0"/>
        <pt x="151" y="698" on="0"/>
        <pt x="177" y="702" on="0"/>
        <pt x="207" y="705" on="0"/>
        <pt x="222" y="705" on="1"/>
        <pt x="285" y="705" on="0"/>
        <pt x="346" y="642" on="0"/>
        <pt x="346" y="588" on="1"/>
        <pt x="346" y="561" on="0"/>
        <pt x="338" y="519" on="0"/>
        <pt x="321" y="480" on="0"/>
        <pt x="293" y="437" on="0"/>
        <pt x="273" y="410" on="1"/>
        <pt x="161" y="270" on="1"/>
        <pt x="325" y="270" on="1"/>
        <pt x="319" y="205" on="1"/>
      </contour>
    </TTGlyph>
    <TTGlyph name="Ccedilla" xMin="77" yMin="260" xMax="186" yMax="360">
      <contour>
        <pt x="77" y="260" on="1"/>
        <pt x="86" y="360" on="1"/>
        <pt x="186" y="360" on="1"/>
        <pt x="177" y="260" on="1"/>
      </contour>
    </TTGlyph>
    <TTGlyph name="D" xMin="88" yMin="200" xMax="344" yMax="705">
      <contour>
        <pt x="331" y="341" on="1"/>
        <pt x="324" y="261" on="0"/>
        <pt x="248" y="200" on="0"/>
        <pt x="186" y="200" on="1"/>
        <pt x="172" y="200" on="0"/>
        <pt x="140" y="203" on="0"/>
        <pt x="112" y="207" on="0"/>
        <pt x="91" y="210" on="0"/>
        <pt x="88" y="211" on="1"/>
        <pt x="94" y="275" on="1"/>
        <pt x="107" y="272" on="0"/>
        <pt x="162" y="263" on="0"/>
        <pt x="187" y="263" on="1"/>
        <pt x="258" y="263" on="0"/>
        <pt x="258" y="371" on="1"/>
        <pt x="258" y="404" on="0"/>
        <pt x="234" y="438" on="0"/>
        <pt x="200" y="438" on="1"/>
        <pt x="143" y="438" on="1"/>
        <pt x="148" y="501" on="1"/>
        <pt x="198" y="501" on="1"/>
        <pt x="225" y="501" on="0"/>
        <pt x="254" y="524" on="0"/>
        <pt x="268" y="554" on="0"/>
        <pt x="270" y="586" on="0"/>
        <pt x="270" y="595" on="1"/>
        <pt x="270" y="624" on="0"/>
        <pt x="244" y="642" on="0"/>
        <pt x="218" y="642" on="1"/>
        <pt x="193" y="642" on="0"/>
        <pt x="146" y="634" on="0"/>
        <pt x="129" y="630" on="1"/>
        <pt x="134" y="694" on="1"/>
        <pt x="137" y="695" on="0"/>
        <pt x="156" y="698" on="0"/>
        <pt x="182" y="702" on="0"/>
        <pt x="212" y="705" on="0"/>
        <pt x="226" y="705" on="1"/>
        <pt x="250" y="705" on="0"/>
        <pt x="293" y="695" on="0"/>
        <pt x="325" y="670" on="0"/>
        <pt x="344" y="627" on="0"/>
        <pt x="344" y="594" on="1"/>
        <pt x="344" y="538" on="0"/>
        <pt x="310" y="483" on="0"/>
        <pt x="276" y="472" on="1"/>
        <pt x="304" y="466" on="0"/>
        <pt x="333" y="411" on="0"/>
        <pt x="333" y="370" on="1"/>
        <pt x="333" y="365" on="0"/>
        <pt x="332" y="346" on="0"/>
      </contour>
    </TTGlyph>
    <TTGlyph name="Delta" xMin="77" yMin="260" xMax="186" yMax="360">
      <contour>
        <pt x="77" y="260" on="1"/>
        <pt x="86" y="360" on="1"/>
        <pt x="186" y="360" on="1"/>
        <pt x="177" y="260" on="1"/>
      </contour>
    </TTGlyph>
    <TTGlyph name="E" xMin="101" yMin="205" xMax="377" yMax="700">
      <contour>
        <pt x="322" y="322" on="1"/>
        <pt x="311" y="205" on="1"/>
        <pt x="237" y="205" on="1"/>
        <pt x="248" y="322" on="1"/>
        <pt x="101" y="322" on="1"/>
        <pt x="107" y="396" on="1"/>
        <pt x="208" y="700" on="1"/>
        <pt x="277" y="700" on="1"/>
        <pt x="176" y="386" on="1"/>
        <pt x="253" y="386" on="1"/>
        <pt x="266" y="529" on="1"/>
        <pt x="340" y="529" on="1"/>
        <pt x="327" y="386" on="1"/>
        <pt x="377" y="386" on="1"/>
        <pt x="372" y="322" on="1"/>
      </contour>
    </TTGlyph>
    <TTGlyph name="Eacute" xMin="77" yMin="260" xMax="186" yMax="360">
      <contour>
        <pt x="77" y="260" on="1"/>
        <pt x="86" y="360" on="1"/>
        <pt x="186" y="360" on="1"/>
        <pt x="177" y="260" on="1"/>
      </contour>
    </TTGlyph>
    <TTGlyph name="Ecircumflex" xMin="77" yMin="260" xMax="186" yMax="360">
      <contour>
        <pt x="77" y="260" on="1"/>
        <pt x="86" y="360" on="1"/>
        <pt x="186" y="360" on="1"/>
        <pt x="177" y="260" on="1"/>
      </contour>
    </TTGlyph>
    <TTGlyph name="Edieresis" xMin="77" yMin="260" xMax="186" yMax="360">
      <contour>
        <pt x="77" y="260" on="1"/>
        <pt x="86" y="360" on="1"/>
        <pt x="186" y="360" on="1"/>
        <pt x="177" y="260" on="1"/>
      </contour>
    </TTGlyph>
    <TTGlyph name="Egrave" xMin="77" yMin="260" xMax="186" yMax="360">
      <contour>
        <pt x="77" y="260" on="1"/>
        <pt x="86" y="360" on="1"/>
        <pt x="186" y="360" on="1"/>
        <pt x="177" y="260" on="1"/>
      </contour>
    </TTGlyph>
    <TTGlyph name="Eth" xMin="77" yMin="260" xMax="186" yMax="360">
      <contour>
        <pt x="77" y="260" on="1"/>
        <pt x="86" y="360" on="1"/>
        <pt x="186" y="360" on="1"/>
        <pt x="177" y="260" on="1"/>
      </contour>
    </TTGlyph>
    <TTGlyph name="Euro" xMin="77" yMin="260" xMax="186" yMax="360">
      <contour>
        <pt x="77" y="260" on="1"/>
        <pt x="86" y="360" on="1"/>
        <pt x="186" y="360" on="1"/>
        <pt x="177" y="260" on="1"/>
      </contour>
    </TTGlyph>
    <TTGlyph name="F" xMin="104" yMin="200" xMax="353" yMax="700">
      <contour>
        <pt x="218" y="636" on="1"/>
        <pt x="207" y="511" on="1"/>
        <pt x="216" y="511" on="1"/>
        <pt x="289" y="511" on="0"/>
        <pt x="345" y="451" on="0"/>
        <pt x="345" y="389" on="1"/>
        <pt x="345" y="335" on="0"/>
        <pt x="324" y="262" on="0"/>
        <pt x="286" y="219" on="0"/>
        <pt x="231" y="200" on="0"/>
        <pt x="197" y="200" on="1"/>
        <pt x="168" y="200" on="0"/>
        <pt x="121" y="208" on="0"/>
        <pt x="104" y="211" on="1"/>
        <pt x="110" y="275" on="1"/>
        <pt x="119" y="273" on="0"/>
        <pt x="171" y="264" on="0"/>
        <pt x="203" y="264" on="1"/>
        <pt x="243" y="264" on="0"/>
        <pt x="271" y="331" on="0"/>
        <pt x="271" y="388" on="1"/>
        <pt x="271" y="427" on="0"/>
        <pt x="244" y="448" on="0"/>
        <pt x="212" y="448" on="1"/>
        <pt x="132" y="448" on="1"/>
        <pt x="154" y="700" on="1"/>
        <pt x="353" y="700" on="1"/>
        <pt x="347" y="636" on="1"/>
      </contour>
    </TTGlyph>
    <TTGlyph name="G" xMin="96" yMin="200" xMax="361" yMax="705">
      <contour>
        <pt x="359" y="363" on="1"/>
        <pt x="351" y="275" on="0"/>
        <pt x="276" y="200" on="0"/>
        <pt x="210" y="200" on="1"/>
        <pt x="183" y="200" on="0"/>
        <pt x="141" y="215" on="0"/>
        <pt x="112" y="256" on="0"/>
        <pt x="96" y="326" on="0"/>
        <pt x="96" y="381" on="1"/>
        <pt x="96" y="484" on="0"/>
        <pt x="123" y="611" on="0"/>
        <pt x="173" y="681" on="0"/>
        <pt x="244" y="705" on="0"/>
        <pt x="287" y="705" on="1"/>
        <pt x="304" y="705" on="0"/>
        <pt x="349" y="698" on="0"/>
        <pt x="358" y="696" on="1"/>
        <pt x="353" y="632" on="1"/>
        <pt x="338" y="636" on="0"/>
        <pt x="301" y="643" on="0"/>
        <pt x="277" y="643" on="1"/>
        <pt x="257" y="643" on="0"/>
        <pt x="225" y="633" on="0"/>
        <pt x="201" y="603" on="0"/>
        <pt x="184" y="550" on="0"/>
        <pt x="178" y="507" on="1"/>
        <pt x="190" y="515" on="0"/>
        <pt x="227" y="529" on="0"/>
        <pt x="253" y="529" on="1"/>
        <pt x="315" y="529" on="0"/>
        <pt x="361" y="463" on="0"/>
        <pt x="361" y="404" on="1"/>
        <pt x="361" y="394" on="0"/>
        <pt x="360" y="374" on="0"/>
      </contour>
      <contour>
        <pt x="242" y="467" on="1"/>
        <pt x="217" y="467" on="0"/>
        <pt x="182" y="454" on="0"/>
        <pt x="173" y="449" on="1"/>
        <pt x="167" y="385" on="0"/>
        <pt x="167" y="347" on="1"/>
        <pt x="167" y="320" on="0"/>
        <pt x="173" y="287" on="0"/>
        <pt x="185" y="270" on="0"/>
        <pt x="203" y="264" on="0"/>
        <pt x="215" y="264" on="1"/>
        <pt x="237" y="264" on="0"/>
        <pt x="265" y="284" on="0"/>
        <pt x="282" y="322" on="0"/>
        <pt x="288" y="375" on="0"/>
        <pt x="288" y="409" on="1"/>
        <pt x="288" y="441" on="0"/>
        <pt x="268" y="467" on="0"/>
      </contour>
    </TTGlyph>
    <TTGlyph name="H" xMin="124" yMin="205" xMax="360" yMax="700">
      <contour>
        <pt x="198" y="205" on="1"/>
        <pt x="124" y="205" on="1"/>
        <pt x="284" y="635" on="1"/>
        <pt x="125" y="635" on="1"/>
        <pt x="131" y="700" on="1"/>
        <pt x="360" y="700" on="1"/>
        <pt x="353" y="619" on="1"/>
      </contour>
    </TTGlyph>
    <TTGlyph name="I" xMin="76" yMin="200" xMax="382" yMax="705">
      <contour>
        <pt x="297" y="334" on="1"/>
        <pt x="298" y="342" on="0"/>
        <pt x="298" y="357" on="0"/>
        <pt x="298" y="364" on="1"/>
        <pt x="298" y="382" on="0"/>
        <pt x="291" y="408" on="0"/>
        <pt x="271" y="426" on="0"/>
        <pt x="236" y="435" on="0"/>
        <pt x="207" y="435" on="1"/>
        <pt x="191" y="426" on="0"/>
        <pt x="170" y="407" on="0"/>
        <pt x="157" y="381" on="0"/>
        <pt x="152" y="346" on="0"/>
        <pt x="152" y="320" on="1"/>
        <pt x="152" y="285" on="0"/>
        <pt x="188" y="262" on="0"/>
        <pt x="217" y="262" on="1"/>
        <pt x="249" y="262" on="0"/>
        <pt x="293" y="290" on="0"/>
      </contour>
      <contour>
        <pt x="310" y="587" on="1"/>
        <pt x="310" y="643" on="0"/>
        <pt x="251" y="643" on="1"/>
        <pt x="213" y="643" on="0"/>
        <pt x="180" y="598" on="0"/>
        <pt x="180" y="549" on="1"/>
        <pt x="180" y="514" on="0"/>
        <pt x="212" y="491" on="0"/>
        <pt x="259" y="491" on="1"/>
        <pt x="275" y="497" on="0"/>
        <pt x="294" y="515" on="0"/>
        <pt x="304" y="540" on="0"/>
        <pt x="309" y="570" on="0"/>
      </contour>
      <contour>
        <pt x="371" y="342" on="1"/>
        <pt x="365" y="271" on="0"/>
        <pt x="292" y="200" on="0"/>
        <pt x="212" y="200" on="1"/>
        <pt x="147" y="200" on="0"/>
        <pt x="76" y="262" on="0"/>
        <pt x="76" y="323" on="1"/>
        <pt x="76" y="352" on="0"/>
        <pt x="90" y="395" on="0"/>
        <pt x="112" y="426" on="0"/>
        <pt x="139" y="447" on="0"/>
        <pt x="152" y="456" on="1"/>
        <pt x="129" y="467" on="0"/>
        <pt x="106" y="519" on="0"/>
        <pt x="106" y="553" on="1"/>
        <pt x="106" y="631" on="0"/>
        <pt x="188" y="705" on="0"/>
        <pt x="256" y="705" on="1"/>
        <pt x="281" y="705" on="0"/>
        <pt x="327" y="691" on="0"/>
        <pt x="361" y="662" on="0"/>
        <pt x="382" y="618" on="0"/>
        <pt x="382" y="587" on="1"/>
        <pt x="382" y="554" on="0"/>
        <pt x="357" y="494" on="0"/>
        <pt x="314" y="471" on="1"/>
        <pt x="346" y="463" on="0"/>
        <pt x="372" y="406" on="0"/>
        <pt x="372" y="368" on="1"/>
        <pt x="372" y="361" on="0"/>
        <pt x="372" y="349" on="0"/>
      </contour>
    </TTGlyph>
    <TTGlyph name="Iacute" xMin="77" yMin="260" xMax="186" yMax="360">
      <contour>
        <pt x="77" y="260" on="1"/>
        <pt x="86" y="360" on="1"/>
        <pt x="186" y="360" on="1"/>
        <pt x="177" y="260" on="1"/>
      </contour>
    </TTGlyph>
    <TTGlyph name="Icircumflex" xMin="77" yMin="260" xMax="186" yMax="360">
      <contour>
        <pt x="77" y="260" on="1"/>
        <pt x="86" y="360" on="1"/>
        <pt x="186" y="360" on="1"/>
        <pt x="177" y="260" on="1"/>
      </contour>
    </TTGlyph>
    <TTGlyph name="Idieresis" xMin="77" yMin="260" xMax="186" yMax="360">
      <contour>
        <pt x="77" y="260" on="1"/>
        <pt x="86" y="360" on="1"/>
        <pt x="186" y="360" on="1"/>
        <pt x="177" y="260" on="1"/>
      </contour>
    </TTGlyph>
    <TTGlyph name="Igrave" xMin="77" yMin="260" xMax="186" yMax="360">
      <contour>
        <pt x="77" y="260" on="1"/>
        <pt x="86" y="360" on="1"/>
        <pt x="186" y="360" on="1"/>
        <pt x="177" y="260" on="1"/>
      </contour>
    </TTGlyph>
    <TTGlyph name="J" xMin="135" yMin="201" xMax="400" yMax="706">
      <contour>
        <pt x="137" y="543" on="1"/>
        <pt x="145" y="631" on="0"/>
        <pt x="223" y="706" on="0"/>
        <pt x="286" y="706" on="1"/>
        <pt x="314" y="706" on="0"/>
        <pt x="356" y="692" on="0"/>
        <pt x="385" y="653" on="0"/>
        <pt x="400" y="585" on="0"/>
        <pt x="400" y="531" on="1"/>
        <pt x="400" y="426" on="0"/>
        <pt x="374" y="297" on="0"/>
        <pt x="325" y="226" on="0"/>
        <pt x="255" y="201" on="0"/>
        <pt x="211" y="201" on="1"/>
        <pt x="194" y="201" on="0"/>
        <pt x="152" y="206" on="0"/>
        <pt x="143" y="208" on="1"/>
        <pt x="148" y="272" on="1"/>
        <pt x="163" y="268" on="0"/>
        <pt x="198" y="263" on="0"/>
        <pt x="222" y="263" on="1"/>
        <pt x="242" y="263" on="0"/>
        <pt x="272" y="273" on="0"/>
        <pt x="295" y="302" on="0"/>
        <pt x="311" y="355" on="0"/>
        <pt x="317" y="398" on="1"/>
        <pt x="304" y="390" on="0"/>
        <pt x="268" y="377" on="0"/>
        <pt x="243" y="377" on="1"/>
        <pt x="183" y="377" on="0"/>
        <pt x="135" y="443" on="0"/>
        <pt x="135" y="504" on="1"/>
        <pt x="135" y="513" on="0"/>
        <pt x="136" y="532" on="0"/>
      </contour>
      <contour>
        <pt x="254" y="439" on="1"/>
        <pt x="279" y="439" on="0"/>
        <pt x="314" y="452" on="0"/>
        <pt x="323" y="457" on="1"/>
        <pt x="329" y="523" on="0"/>
        <pt x="329" y="561" on="1"/>
        <pt x="329" y="587" on="0"/>
        <pt x="323" y="619" on="0"/>
        <pt x="312" y="636" on="0"/>
        <pt x="294" y="642" on="0"/>
        <pt x="282" y="642" on="1"/>
        <pt x="237" y="642" on="0"/>
        <pt x="209" y="563" on="0"/>
        <pt x="209" y="494" on="1"/>
        <pt x="209" y="463" on="0"/>
        <pt x="228" y="439" on="0"/>
      </contour>
    </TTGlyph>
    <TTGlyph name="K" xMin="120" yMin="137" xMax="466" yMax="483">
      <contour>
        <pt x="293" y="253" on="1"/>
        <pt x="176" y="137" on="1"/>
        <pt x="120" y="193" on="1"/>
        <pt x="236" y="310" on="1"/>
        <pt x="120" y="427" on="1"/>
        <pt x="176" y="483" on="1"/>
        <pt x="293" y="367" on="1"/>
        <pt x="410" y="483" on="1"/>
        <pt x="466" y="427" on="1"/>
        <pt x="350" y="310" on="1"/>
        <pt x="466" y="193" on="1"/>
        <pt x="410" y="137" on="1"/>
      </contour>
    </TTGlyph>
    <TTGlyph name="L" xMin="89" yMin="-2" xMax="570" yMax="700">
      <contour>
        <pt x="473" y="625" on="1"/>
        <pt x="430" y="127" on="1"/>
        <pt x="429" y="118" on="0"/>
        <pt x="428" y="106" on="0"/>
        <pt x="428" y="103" on="1"/>
        <pt x="428" y="85" on="0"/>
        <pt x="441" y="70" on="0"/>
        <pt x="458" y="70" on="1"/>
        <pt x="466" y="70" on="0"/>
        <pt x="481" y="74" on="0"/>
        <pt x="485" y="75" on="1"/>
        <pt x="479" y="5" on="1"/>
        <pt x="468" y="3" on="0"/>
        <pt x="438" y="-2" on="0"/>
        <pt x="418" y="-2" on="1"/>
        <pt x="405" y="-2" on="0"/>
        <pt x="377" y="8" on="0"/>
        <pt x="354" y="31" on="0"/>
        <pt x="340" y="68" on="0"/>
        <pt x="340" y="95" on="1"/>
        <pt x="340" y="100" on="0"/>
        <pt x="341" y="112" on="0"/>
        <pt x="342" y="122" on="1"/>
        <pt x="386" y="625" on="1"/>
        <pt x="255" y="625" on="1"/>
        <pt x="201" y="0" on="1"/>
        <pt x="114" y="0" on="1"/>
        <pt x="168" y="625" on="1"/>
        <pt x="89" y="625" on="1"/>
        <pt x="96" y="700" on="1"/>
        <pt x="570" y="700" on="1"/>
        <pt x="563" y="625" on="1"/>
      </contour>
    </TTGlyph>
    <TTGlyph name="Lslash" xMin="77" yMin="260" xMax="186" yMax="360">
      <contour>
        <pt x="77" y="260" on="1"/>
        <pt x="86" y="360" on="1"/>
        <pt x="186" y="360" on="1"/>
        <pt x="177" y="260" on="1"/>
      </contour>
    </TTGlyph>
    <TTGlyph name="M" xMin="15" yMin="-170" xMax="465" yMax="700">
      <contour>
        <pt x="15" y="-170" on="1"/>
        <pt x="24" y="-76" on="1"/>
        <pt x="222" y="267" on="1"/>
        <pt x="96" y="605" on="1"/>
        <pt x="105" y="700" on="1"/>
        <pt x="465" y="700" on="1"/>
        <pt x="458" y="625" on="1"/>
        <pt x="186" y="625" on="1"/>
        <pt x="317" y="267" on="1"/>
        <pt x="108" y="-96" on="1"/>
        <pt x="407" y="-96" on="1"/>
        <pt x="400" y="-170" on="1"/>
      </contour>
    </TTGlyph>
    <TTGlyph name="N" xMin="61" yMin="166" xMax="703" yMax="494">
      <contour>
        <pt x="249" y="421" on="1"/>
        <pt x="200" y="421" on="0"/>
        <pt x="144" y="374" on="0"/>
        <pt x="144" y="315" on="1"/>
        <pt x="144" y="273" on="0"/>
        <pt x="190" y="239" on="0"/>
        <pt x="233" y="239" on="1"/>
        <pt x="262" y="239" on="0"/>
        <pt x="303" y="252" on="0"/>
        <pt x="329" y="281" on="0"/>
        <pt x="343" y="326" on="0"/>
        <pt x="346" y="359" on="1"/>
        <pt x="337" y="388" on="0"/>
        <pt x="284" y="421" on="0"/>
      </contour>
      <contour>
        <pt x="379" y="245" on="1"/>
        <pt x="359" y="209" on="0"/>
        <pt x="283" y="166" on="0"/>
        <pt x="228" y="166" on="1"/>
        <pt x="147" y="166" on="0"/>
        <pt x="61" y="241" on="0"/>
        <pt x="61" y="310" on="1"/>
        <pt x="61" y="397" on="0"/>
        <pt x="153" y="494" on="0"/>
        <pt x="257" y="494" on="1"/>
        <pt x="293" y="494" on="0"/>
        <pt x="362" y="462" on="0"/>
        <pt x="385" y="415" on="1"/>
        <pt x="405" y="451" on="0"/>
        <pt x="476" y="494" on="0"/>
        <pt x="535" y="494" on="1"/>
        <pt x="617" y="494" on="0"/>
        <pt x="703" y="419" on="0"/>
        <pt x="703" y="350" on="1"/>
        <pt x="703" y="264" on="0"/>
        <pt x="611" y="166" on="0"/>
        <pt x="506" y="166" on="1"/>
        <pt x="469" y="166" on="0"/>
        <pt x="402" y="198" on="0"/>
      </contour>
      <contour>
        <pt x="515" y="239" on="1"/>
        <pt x="563" y="239" on="0"/>
        <pt x="620" y="285" on="0"/>
        <pt x="620" y="344" on="1"/>
        <pt x="620" y="386" on="0"/>
        <pt x="575" y="421" on="0"/>
        <pt x="531" y="421" on="1"/>
        <pt x="473" y="421" on="0"/>
        <pt x="424" y="366" on="0"/>
        <pt x="418" y="301" on="1"/>
        <pt x="428" y="272" on="0"/>
        <pt x="480" y="239" on="0"/>
      </contour>
    </TTGlyph>
    <TTGlyph name="Ntilde" xMin="77" yMin="260" xMax="186" yMax="360">
      <contour>
        <pt x="77" y="260" on="1"/>
        <pt x="86" y="360" on="1"/>
        <pt x="186" y="360" on="1"/>
        <pt x="177" y="260" on="1"/>
      </contour>
    </TTGlyph>
    <TTGlyph name="O" xMin="78" yMin="128" xMax="511" yMax="620">
      <contour>
        <pt x="259" y="488" on="1"/>
        <pt x="78" y="353" on="1"/>
        <pt x="86" y="457" on="1"/>
        <pt x="313" y="620" on="1"/>
        <pt x="511" y="457" on="1"/>
        <pt x="503" y="355" on="1"/>
        <pt x="344" y="493" on="1"/>
        <pt x="313" y="128" on="1"/>
        <pt x="227" y="128" on="1"/>
      </contour>
    </TTGlyph>
    <TTGlyph name="OE" xMin="77" yMin="260" xMax="186" yMax="360">
      <contour>
        <pt x="77" y="260" on="1"/>
        <pt x="86" y="360" on="1"/>
        <pt x="186" y="360" on="1"/>
        <pt x="177" y="260" on="1"/>
      </contour>
    </TTGlyph>
    <TTGlyph name="Oacute" xMin="77" yMin="260" xMax="186" yMax="360">
      <contour>
        <pt x="77" y="260" on="1"/>
        <pt x="86" y="360" on="1"/>
        <pt x="186" y="360" on="1"/>
        <pt x="177" y="260" on="1"/>
      </contour>
    </TTGlyph>
    <TTGlyph name="Ocircumflex" xMin="77" yMin="260" xMax="186" yMax="360">
      <contour>
        <pt x="77" y="260" on="1"/>
        <pt x="86" y="360" on="1"/>
        <pt x="186" y="360" on="1"/>
        <pt x="177" y="260" on="1"/>
      </contour>
    </TTGlyph>
    <TTGlyph name="Odieresis" xMin="77" yMin="260" xMax="186" yMax="360">
      <contour>
        <pt x="77" y="260" on="1"/>
        <pt x="86" y="360" on="1"/>
        <pt x="186" y="360" on="1"/>
        <pt x="177" y="260" on="1"/>
      </contour>
    </TTGlyph>
    <TTGlyph name="Ograve" xMin="77" yMin="260" xMax="186" yMax="360">
      <contour>
        <pt x="77" y="260" on="1"/>
        <pt x="86" y="360" on="1"/>
        <pt x="186" y="360" on="1"/>
        <pt x="177" y="260" on="1"/>
      </contour>
    </TTGlyph>
    <TTGlyph name="Omega" xMin="77" yMin="260" xMax="186" yMax="360">
      <contour>
        <pt x="77" y="260" on="1"/>
        <pt x="86" y="360" on="1"/>
        <pt x="186" y="360" on="1"/>
        <pt x="177" y="260" on="1"/>
      </contour>
    </TTGlyph>
    <TTGlyph name="Oslash" xMin="77" yMin="260" xMax="186" yMax="360">
      <contour>
        <pt x="77" y="260" on="1"/>
        <pt x="86" y="360" on="1"/>
        <pt x="186" y="360" on="1"/>
        <pt x="177" y="260" on="1"/>
      </contour>
    </TTGlyph>
    <TTGlyph name="Otilde" xMin="77" yMin="260" xMax="186" yMax="360">
      <contour>
        <pt x="77" y="260" on="1"/>
        <pt x="86" y="360" on="1"/>
        <pt x="186" y="360" on="1"/>
        <pt x="177" y="260" on="1"/>
      </contour>
    </TTGlyph>
    <TTGlyph name="P" xMin="47" yMin="157" xMax="543" yMax="582">
      <contour>
        <pt x="415" y="411" on="1"/>
        <pt x="295" y="582" on="1"/>
        <pt x="398" y="582" on="1"/>
        <pt x="543" y="370" on="1"/>
        <pt x="361" y="157" on="1"/>
        <pt x="254" y="157" on="1"/>
        <pt x="405" y="329" on="1"/>
        <pt x="47" y="329" on="1"/>
        <pt x="54" y="411" on="1"/>
      </contour>
    </TTGlyph>
    <TTGlyph name="Q" xMin="86" yMin="162" xMax="494" yMax="575">
      <contour>
        <pt x="199" y="417" on="1"/>
        <pt x="153" y="200" on="1"/>
        <pt x="86" y="275" on="1"/>
        <pt x="144" y="540" on="1"/>
        <pt x="413" y="575" on="1"/>
        <pt x="479" y="502" on="1"/>
        <pt x="259" y="480" on="1"/>
        <pt x="494" y="222" on="1"/>
        <pt x="429" y="162" on="1"/>
      </contour>
    </TTGlyph>
    <TTGlyph name="R" xMin="80" yMin="166" xMax="498" yMax="579">
      <contour>
        <pt x="362" y="482" on="1"/>
        <pt x="148" y="508" on="1"/>
        <pt x="224" y="579" on="1"/>
        <pt x="486" y="544" on="1"/>
        <pt x="498" y="278" on="1"/>
        <pt x="415" y="204" on="1"/>
        <pt x="409" y="420" on="1"/>
        <pt x="135" y="166" on="1"/>
        <pt x="80" y="226" on="1"/>
      </contour>
    </TTGlyph>
    <TTGlyph name="S" xMin="80" yMin="0" xMax="741" yMax="700">
      <contour>
        <pt x="80" y="0" on="1"/>
        <pt x="141" y="700" on="1"/>
        <pt x="741" y="700" on="1"/>
        <pt x="680" y="0" on="1"/>
      </contour>
      <contour>
        <pt x="647" y="621" on="1"/>
        <pt x="221" y="621" on="1"/>
        <pt x="173" y="79" on="1"/>
        <pt x="599" y="79" on="1"/>
      </contour>
    </TTGlyph>
    <TTGlyph name="Scaron" xMin="77" yMin="260" xMax="186" yMax="360">
      <contour>
        <pt x="77" y="260" on="1"/>
        <pt x="86" y="360" on="1"/>
        <pt x="186" y="360" on="1"/>
        <pt x="177" y="260" on="1"/>
      </contour>
    </TTGlyph>
    <TTGlyph name="T" xMin="65" yMin="-170" xMax="754" yMax="850">
      <contour>
        <pt x="65" y="-170" on="1"/>
        <pt x="154" y="850" on="1"/>
        <pt x="754" y="850" on="1"/>
        <pt x="665" y="-170" on="1"/>
      </contour>
      <contour>
        <pt x="660" y="771" on="1"/>
        <pt x="234" y="771" on="1"/>
        <pt x="159" y="-91" on="1"/>
        <pt x="585" y="-91" on="1"/>
      </contour>
    </TTGlyph>
    <TTGlyph name="Thorn" xMin="77" yMin="260" xMax="186" yMax="360">
      <contour>
        <pt x="77" y="260" on="1"/>
        <pt x="86" y="360" on="1"/>
        <pt x="186" y="360" on="1"/>
        <pt x="177" y="260" on="1"/>
      </contour>
    </TTGlyph>
    <TTGlyph name="U" xMin="43" yMin="-7" xMax="497" yMax="707">
      <contour>
        <pt x="492" y="361" on="1"/>
        <pt x="482" y="249" on="0"/>
        <pt x="446" y="106" on="0"/>
        <pt x="389" y="24" on="0"/>
        <pt x="310" y="-7" on="0"/>
        <pt x="258" y="-7" on="1"/>
        <pt x="229" y="-7" on="0"/>
        <pt x="168" y="-6" on="0"/>
        <pt x="142" y="-4" on="1"/>
        <pt x="112" y="-2" on="0"/>
        <pt x="85" y="0" on="1"/>
        <pt x="113" y="325" on="1"/>
        <pt x="43" y="325" on="1"/>
        <pt x="49" y="400" on="1"/>
        <pt x="120" y="400" on="1"/>
        <pt x="146" y="700" on="1"/>
        <pt x="173" y="702" on="0"/>
        <pt x="201" y="704" on="1"/>
        <pt x="225" y="706" on="0"/>
        <pt x="282" y="707" on="0"/>
        <pt x="308" y="707" on="1"/>
        <pt x="351" y="707" on="0"/>
        <pt x="421" y="689" on="0"/>
        <pt x="470" y="636" on="0"/>
        <pt x="497" y="541" on="0"/>
        <pt x="497" y="464" on="1"/>
        <pt x="497" y="441" on="0"/>
        <pt x="494" y="390" on="0"/>
      </contour>
      <contour>
        <pt x="402" y="354" on="1"/>
        <pt x="408" y="422" on="0"/>
        <pt x="408" y="468" on="1"/>
        <pt x="408" y="520" on="0"/>
        <pt x="396" y="585" on="0"/>
        <pt x="373" y="621" on="0"/>
        <pt x="342" y="634" on="0"/>
        <pt x="324" y="634" on="1"/>
        <pt x="310" y="634" on="0"/>
        <pt x="277" y="633" on="0"/>
        <pt x="262" y="632" on="1"/>
        <pt x="244" y="631" on="0"/>
        <pt x="227" y="630" on="1"/>
        <pt x="207" y="400" on="1"/>
        <pt x="319" y="400" on="1"/>
        <pt x="313" y="325" on="1"/>
        <pt x="200" y="325" on="1"/>
        <pt x="178" y="70" on="1"/>
        <pt x="193" y="69" on="0"/>
        <pt x="210" y="68" on="1"/>
        <pt x="224" y="67" on="0"/>
        <pt x="257" y="66" on="0"/>
        <pt x="273" y="66" on="1"/>
        <pt x="296" y="66" on="0"/>
        <pt x="337" y="94" on="0"/>
        <pt x="370" y="161" on="0"/>
        <pt x="395" y="272" on="0"/>
      </contour>
    </TTGlyph>
    <TTGlyph name="Uacute" xMin="77" yMin="260" xMax="186" yMax="360">
      <contour>
        <pt x="77" y="260" on="1"/>
        <pt x="86" y="360" on="1"/>
        <pt x="186" y="360" on="1"/>
        <pt x="177" y="260" on="1"/>
      </contour>
    </TTGlyph>
    <TTGlyph name="Ucircumflex" xMin="77" yMin="260" xMax="186" yMax="360">
      <contour>
        <pt x="77" y="260" on="1"/>
        <pt x="86" y="360" on="1"/>
        <pt x="186" y="360" on="1"/>
        <pt x="177" y="260" on="1"/>
      </contour>
    </TTGlyph>
    <TTGlyph name="Udieresis" xMin="77" yMin="260" xMax="186" yMax="360">
      <contour>
        <pt x="77" y="260" on="1"/>
        <pt x="86" y="360" on="1"/>
        <pt x="186" y="360" on="1"/>
        <pt x="177" y="260" on="1"/>
      </contour>
    </TTGlyph>
    <TTGlyph name="Ugrave" xMin="77" yMin="260" xMax="186" yMax="360">
      <contour>
        <pt x="77" y="260" on="1"/>
        <pt x="86" y="360" on="1"/>
        <pt x="186" y="360" on="1"/>
        <pt x="177" y="260" on="1"/>
      </contour>
    </TTGlyph>
    <TTGlyph name="V" xMin="41" yMin="0" xMax="391" yMax="700">
      <contour>
        <pt x="75" y="0" on="1"/>
        <pt x="103" y="329" on="1"/>
        <pt x="41" y="300" on="1"/>
        <pt x="48" y="380" on="1"/>
        <pt x="110" y="409" on="1"/>
        <pt x="136" y="700" on="1"/>
        <pt x="223" y="700" on="1"/>
        <pt x="201" y="451" on="1"/>
        <pt x="329" y="510" on="1"/>
        <pt x="322" y="430" on="1"/>
        <pt x="194" y="371" on="1"/>
        <pt x="168" y="76" on="1"/>
        <pt x="391" y="76" on="1"/>
        <pt x="385" y="0" on="1"/>
      </contour>
    </TTGlyph>
    <TTGlyph name="W" xMin="75" yMin="0" xMax="473" yMax="700">
      <contour>
        <pt x="470" y="350" on="1"/>
        <pt x="466" y="299" on="0"/>
        <pt x="441" y="221" on="0"/>
        <pt x="391" y="168" on="0"/>
        <pt x="314" y="141" on="0"/>
        <pt x="258" y="141" on="1"/>
        <pt x="174" y="141" on="1"/>
        <pt x="162" y="0" on="1"/>
        <pt x="75" y="0" on="1"/>
        <pt x="136" y="700" on="1"/>
        <pt x="223" y="700" on="1"/>
        <pt x="211" y="570" on="1"/>
        <pt x="230" y="571" on="0"/>
        <pt x="271" y="574" on="0"/>
        <pt x="294" y="574" on="1"/>
        <pt x="344" y="574" on="0"/>
        <pt x="412" y="548" on="0"/>
        <pt x="454" y="501" on="0"/>
        <pt x="473" y="436" on="0"/>
        <pt x="473" y="397" on="1"/>
        <pt x="473" y="389" on="0"/>
        <pt x="471" y="359" on="0"/>
      </contour>
      <contour>
        <pt x="382" y="355" on="1"/>
        <pt x="383" y="366" on="0"/>
        <pt x="384" y="384" on="0"/>
        <pt x="384" y="393" on="1"/>
        <pt x="384" y="449" on="0"/>
        <pt x="345" y="502" on="0"/>
        <pt x="299" y="502" on="1"/>
        <pt x="257" y="502" on="0"/>
        <pt x="231" y="499" on="1"/>
        <pt x="216" y="497" on="0"/>
        <pt x="205" y="496" on="1"/>
        <pt x="180" y="214" on="1"/>
        <pt x="274" y="214" on="1"/>
        <pt x="295" y="214" on="0"/>
        <pt x="331" y="227" on="0"/>
        <pt x="359" y="260" on="0"/>
        <pt x="378" y="314" on="0"/>
      </contour>
    </TTGlyph>
    <TTGlyph name="X" xMin="57" yMin="-7" xMax="455" yMax="844">
      <contour>
        <pt x="239" y="844" on="1"/>
        <pt x="293" y="777" on="1"/>
        <pt x="359" y="844" on="1"/>
        <pt x="455" y="844" on="1"/>
        <pt x="333" y="729" on="1"/>
        <pt x="245" y="729" on="1"/>
        <pt x="142" y="844" on="1"/>
      </contour>
      <contour>
        <pt x="390" y="237" on="1"/>
        <pt x="390" y="170" on="0"/>
        <pt x="364" y="76" on="0"/>
        <pt x="311" y="19" on="0"/>
        <pt x="230" y="-7" on="0"/>
        <pt x="175" y="-7" on="1"/>
        <pt x="145" y="-7" on="0"/>
        <pt x="83" y="2" on="0"/>
        <pt x="57" y="9" on="1"/>
        <pt x="64" y="83" on="1"/>
        <pt x="87" y="77" on="0"/>
        <pt x="147" y="66" on="0"/>
        <pt x="188" y="66" on="1"/>
        <pt x="247" y="66" on="0"/>
        <pt x="300" y="144" on="0"/>
        <pt x="300" y="225" on="1"/>
        <pt x="300" y="251" on="0"/>
        <pt x="291" y="286" on="0"/>
        <pt x="273" y="308" on="0"/>
        <pt x="246" y="321" on="0"/>
        <pt x="229" y="325" on="1"/>
        <pt x="159" y="340" on="0"/>
        <pt x="91" y="412" on="0"/>
        <pt x="91" y="484" on="1"/>
        <pt x="91" y="546" on="0"/>
        <pt x="122" y="632" on="0"/>
        <pt x="178" y="684" on="0"/>
        <pt x="256" y="707" on="0"/>
        <pt x="303" y="707" on="1"/>
        <pt x="332" y="707" on="0"/>
        <pt x="390" y="696" on="0"/>
        <pt x="411" y="690" on="1"/>
        <pt x="404" y="617" on="1"/>
        <pt x="379" y="623" on="0"/>
        <pt x="320" y="634" on="0"/>
        <pt x="290" y="634" on="1"/>
        <pt x="268" y="634" on="0"/>
        <pt x="228" y="619" on="0"/>
        <pt x="198" y="584" on="0"/>
        <pt x="180" y="529" on="0"/>
        <pt x="180" y="490" on="1"/>
        <pt x="180" y="450" on="0"/>
        <pt x="210" y="416" on="0"/>
        <pt x="249" y="408" on="1"/>
        <pt x="281" y="401" on="0"/>
        <pt x="333" y="378" on="0"/>
        <pt x="370" y="339" on="0"/>
        <pt x="390" y="280" on="0"/>
      </contour>
    </TTGlyph>
    <TTGlyph name="Y" xMin="71" yMin="0" xMax="522" yMax="841">
      <contour>
        <pt x="239" y="726" on="1"/>
        <pt x="353" y="841" on="1"/>
        <pt x="464" y="841" on="1"/>
        <pt x="322" y="726" on="1"/>
      </contour>
      <contour>
        <pt x="307" y="325" on="1"/>
        <pt x="279" y="0" on="1"/>
        <pt x="189" y="0" on="1"/>
        <pt x="217" y="325" on="1"/>
        <pt x="71" y="700" on="1"/>
        <pt x="165" y="700" on="1"/>
        <pt x="271" y="409" on="1"/>
        <pt x="429" y="700" on="1"/>
        <pt x="522" y="700" on="1"/>
      </contour>
    </TTGlyph>
    <TTGlyph name="Yacute" xMin="77" yMin="260" xMax="186" yMax="360">
      <contour>
        <pt x="77" y="260" on="1"/>
        <pt x="86" y="360" on="1"/>
        <pt x="186" y="360" on="1"/>
        <pt x="177" y="260" on="1"/>
      </contour>
    </TTGlyph>
    <TTGlyph name="Ydieresis" xMin="77" yMin="260" xMax="186" yMax="360">
      <contour>
        <pt x="77" y="260" on="1"/>
        <pt x="86" y="360" on="1"/>
        <pt x="186" y="360" on="1"/>
        <pt x="177" y="260" on="1"/>
      </contour>
    </TTGlyph>
    <TTGlyph name="Z" xMin="35" yMin="0" xMax="448" yMax="844">
      <contour>
        <pt x="232" y="844" on="1"/>
        <pt x="286" y="777" on="1"/>
        <pt x="352" y="844" on="1"/>
        <pt x="448" y="844" on="1"/>
        <pt x="326" y="729" on="1"/>
        <pt x="238" y="729" on="1"/>
        <pt x="135" y="844" on="1"/>
      </contour>
      <contour>
        <pt x="131" y="74" on="1"/>
        <pt x="377" y="74" on="1"/>
        <pt x="371" y="0" on="1"/>
        <pt x="35" y="0" on="1"/>
        <pt x="42" y="88" on="1"/>
        <pt x="346" y="626" on="1"/>
        <pt x="112" y="626" on="1"/>
        <pt x="119" y="700" on="1"/>
        <pt x="442" y="700" on="1"/>
        <pt x="434" y="612" on="1"/>
      </contour>
    </TTGlyph>
    <TTGlyph name="Zcaron" xMin="77" yMin="260" xMax="186" yMax="360">
      <contour>
        <pt x="77" y="260" on="1"/>
        <pt x="86" y="360" on="1"/>
        <pt x="186" y="360" on="1"/>
        <pt x="177" y="260" on="1"/>
      </contour>
    </TTGlyph>
    <TTGlyph name="a" xMin="82" yMin="-5" xMax="371" yMax="500">
      <contour>
        <pt x="292" y="250" on="1"/>
        <pt x="298" y="312" on="0"/>
        <pt x="298" y="349" on="1"/>
        <pt x="298" y="378" on="0"/>
        <pt x="291" y="412" on="0"/>
        <pt x="278" y="431" on="0"/>
        <pt x="257" y="437" on="0"/>
        <pt x="243" y="437" on="1"/>
        <pt x="225" y="437" on="0"/>
        <pt x="199" y="425" on="0"/>
        <pt x="179" y="386" on="0"/>
        <pt x="166" y="312" on="0"/>
        <pt x="160" y="250" on="1"/>
        <pt x="158" y="220" on="0"/>
        <pt x="155" y="172" on="0"/>
        <pt x="155" y="153" on="1"/>
        <pt x="155" y="124" on="0"/>
        <pt x="162" y="87" on="0"/>
        <pt x="175" y="66" on="0"/>
        <pt x="196" y="58" on="0"/>
        <pt x="210" y="58" on="1"/>
        <pt x="229" y="58" on="0"/>
        <pt x="256" y="73" on="0"/>
        <pt x="274" y="115" on="0"/>
        <pt x="287" y="190" on="0"/>
      </contour>
      <contour>
        <pt x="367" y="254" on="1"/>
        <pt x="361" y="185" on="0"/>
        <pt x="343" y="87" on="0"/>
        <pt x="308" y="24" on="0"/>
        <pt x="250" y="-5" on="0"/>
        <pt x="204" y="-5" on="1"/>
        <pt x="136" y="-5" on="0"/>
        <pt x="82" y="74" on="0"/>
        <pt x="82" y="163" on="1"/>
        <pt x="82" y="183" on="0"/>
        <pt x="85" y="228" on="0"/>
        <pt x="87" y="254" on="1"/>
        <pt x="93" y="320" on="0"/>
        <pt x="110" y="413" on="0"/>
        <pt x="145" y="473" on="0"/>
        <pt x="202" y="500" on="0"/>
        <pt x="248" y="500" on="1"/>
        <pt x="316" y="500" on="0"/>
        <pt x="371" y="424" on="0"/>
        <pt x="371" y="338" on="1"/>
        <pt x="371" y="319" on="0"/>
        <pt x="369" y="277" on="0"/>
      </contour>
    </TTGlyph>
    <TTGlyph name="aacute" xMin="77" yMin="260" xMax="186" yMax="360">
      <contour>
        <pt x="77" y="260" on="1"/>
        <pt x="86" y="360" on="1"/>
        <pt x="186" y="360" on="1"/>
        <pt x="177" y="260" on="1"/>
      </contour>
    </TTGlyph>
    <TTGlyph name="acircumflex" xMin="77" yMin="260" xMax="186" yMax="360">
      <contour>
        <pt x="77" y="260" on="1"/>
        <pt x="86" y="360" on="1"/>
        <pt x="186" y="360" on="1"/>
        <pt x="177" y="260" on="1"/>
      </contour>
    </TTGlyph>
    <TTGlyph name="acute" xMin="77" yMin="260" xMax="186" yMax="360">
      <contour>
        <pt x="77" y="260" on="1"/>
        <pt x="86" y="360" on="1"/>
        <pt x="186" y="360" on="1"/>
        <pt x="177" y="260" on="1"/>
      </contour>
    </TTGlyph>
    <TTGlyph name="adieresis" xMin="77" yMin="260" xMax="186" yMax="360">
      <contour>
        <pt x="77" y="260" on="1"/>
        <pt x="86" y="360" on="1"/>
        <pt x="186" y="360" on="1"/>
        <pt x="177" y="260" on="1"/>
      </contour>
    </TTGlyph>
    <TTGlyph name="ae" xMin="77" yMin="260" xMax="186" yMax="360">
      <contour>
        <pt x="77" y="260" on="1"/>
        <pt x="86" y="360" on="1"/>
        <pt x="186" y="360" on="1"/>
        <pt x="177" y="260" on="1"/>
      </contour>
    </TTGlyph>
    <TTGlyph name="agrave" xMin="77" yMin="260" xMax="186" yMax="360">
      <contour>
        <pt x="77" y="260" on="1"/>
        <pt x="86" y="360" on="1"/>
        <pt x="186" y="360" on="1"/>
        <pt x="177" y="260" on="1"/>
      </contour>
    </TTGlyph>
    <TTGlyph name="ampersand" xMin="47" yMin="-200" xMax="150" yMax="-110">
      <contour>
        <pt x="150" y="-110" on="1"/>
        <pt x="142" y="-200" on="1"/>
        <pt x="47" y="-200" on="1"/>
        <pt x="55" y="-110" on="1"/>
      </contour>
    </TTGlyph>
    <TTGlyph name="approxequal" xMin="77" yMin="260" xMax="186" yMax="360">
      <contour>
        <pt x="77" y="260" on="1"/>
        <pt x="86" y="360" on="1"/>
        <pt x="186" y="360" on="1"/>
        <pt x="177" y="260" on="1"/>
      </contour>
    </TTGlyph>
    <TTGlyph name="aring" xMin="77" yMin="260" xMax="186" yMax="360">
      <contour>
        <pt x="77" y="260" on="1"/>
        <pt x="86" y="360" on="1"/>
        <pt x="186" y="360" on="1"/>
        <pt x="177" y="260" on="1"/>
      </contour>
    </TTGlyph>
    <TTGlyph name="asciicircum" xMin="-60" yMin="-175" xMax="756" yMax="707">
      <contour>
        <pt x="750" y="5" on="1"/>
        <pt x="739" y="3" on="0"/>
        <pt x="709" y="-3" on="0"/>
        <pt x="689" y="-3" on="1"/>
        <pt x="675" y="-3" on="0"/>
        <pt x="647" y="6" on="0"/>
        <pt x="626" y="27" on="0"/>
        <pt x="613" y="63" on="0"/>
        <pt x="613" y="90" on="1"/>
        <pt x="613" y="95" on="0"/>
        <pt x="614" y="116" on="0"/>
        <pt x="615" y="122" on="1"/>
        <pt x="660" y="631" on="1"/>
        <pt x="639" y="635" on="0"/>
        <pt x="600" y="638" on="0"/>
        <pt x="584" y="638" on="1"/>
        <pt x="553" y="638" on="0"/>
        <pt x="515" y="628" on="0"/>
        <pt x="493" y="609" on="0"/>
        <pt x="485" y="582" on="0"/>
        <pt x="483" y="565" on="1"/>
        <pt x="477" y="500" on="1"/>
        <pt x="571" y="500" on="1"/>
        <pt x="565" y="427" on="1"/>
        <pt x="471" y="427" on="1"/>
        <pt x="430" y="-43" on="1"/>
        <pt x="428" y="-71" on="0"/>
        <pt x="412" y="-119" on="0"/>
        <pt x="381" y="-155" on="0"/>
        <pt x="331" y="-175" on="0"/>
        <pt x="295" y="-175" on="1"/>
        <pt x="283" y="-175" on="0"/>
        <pt x="253" y="-173" on="0"/>
        <pt x="236" y="-171" on="1"/>
        <pt x="242" y="-101" on="1"/>
        <pt x="256" y="-103" on="0"/>
        <pt x="281" y="-103" on="0"/>
        <pt x="288" y="-103" on="1"/>
        <pt x="339" y="-103" on="0"/>
        <pt x="344" y="-48" on="1"/>
        <pt x="386" y="427" on="1"/>
        <pt x="202" y="427" on="1"/>
        <pt x="161" y="-43" on="1"/>
        <pt x="159" y="-71" on="0"/>
        <pt x="143" y="-119" on="0"/>
        <pt x="111" y="-155" on="0"/>
        <pt x="61" y="-175" on="0"/>
        <pt x="25" y="-175" on="1"/>
        <pt x="1" y="-175" on="0"/>
        <pt x="-40" y="-172" on="0"/>
        <pt x="-60" y="-170" on="1"/>
        <pt x="-54" y="-99" on="1"/>
        <pt x="-38" y="-101" on="0"/>
        <pt x="6" y="-103" on="0"/>
        <pt x="18" y="-103" on="1"/>
        <pt x="70" y="-103" on="0"/>
        <pt x="75" y="-48" on="1"/>
        <pt x="117" y="427" on="1"/>
        <pt x="52" y="427" on="1"/>
        <pt x="58" y="500" on="1"/>
        <pt x="123" y="500" on="1"/>
        <pt x="127" y="543" on="1"/>
        <pt x="130" y="578" on="0"/>
        <pt x="150" y="634" on="0"/>
        <pt x="190" y="673" on="0"/>
        <pt x="257" y="693" on="0"/>
        <pt x="307" y="693" on="1"/>
        <pt x="355" y="693" on="0"/>
        <pt x="424" y="680" on="0"/>
        <pt x="446" y="673" on="1"/>
        <pt x="466" y="690" on="0"/>
        <pt x="530" y="707" on="0"/>
        <pt x="577" y="707" on="1"/>
        <pt x="602" y="707" on="0"/>
        <pt x="650" y="702" on="0"/>
        <pt x="666" y="700" on="1"/>
        <pt x="751" y="700" on="1"/>
        <pt x="702" y="137" on="1"/>
        <pt x="701" y="129" on="0"/>
        <pt x="699" y="106" on="0"/>
        <pt x="699" y="103" on="1"/>
        <pt x="699" y="85" on="0"/>
        <pt x="712" y="70" on="0"/>
        <pt x="729" y="70" on="1"/>
        <pt x="737" y="70" on="0"/>
        <pt x="752" y="74" on="0"/>
        <pt x="756" y="75" on="1"/>
      </contour>
      <contour>
        <pt x="397" y="558" on="1"/>
        <pt x="399" y="587" on="0"/>
        <pt x="406" y="611" on="1"/>
        <pt x="380" y="618" on="0"/>
        <pt x="336" y="623" on="0"/>
        <pt x="314" y="623" on="1"/>
        <pt x="284" y="623" on="0"/>
        <pt x="246" y="613" on="0"/>
        <pt x="224" y="594" on="0"/>
        <pt x="215" y="567" on="0"/>
        <pt x="213" y="550" on="1"/>
        <pt x="208" y="500" on="1"/>
        <pt x="392" y="500" on="1"/>
        <pt x="397" y="558" on="1"/>
      </contour>
    </TTGlyph>
    <TTGlyph name="asciitilde" xMin="95" yMin="201" xMax="626" yMax="464">
      <contour>
        <pt x="366" y="201" on="1"/>
        <pt x="374" y="295" on="1"/>
        <pt x="95" y="295" on="1"/>
        <pt x="102" y="370" on="1"/>
        <pt x="381" y="370" on="1"/>
        <pt x="389" y="464" on="1"/>
        <pt x="626" y="333" on="1"/>
      </contour>
    </TTGlyph>
    <TTGlyph name="asterisk" xMin="77" yMin="598" xMax="483" yMax="745">
      <contour>
        <pt x="153" y="598" on="1"/>
        <pt x="77" y="598" on="1"/>
        <pt x="193" y="745" on="1"/>
        <pt x="313" y="745" on="1"/>
      </contour>
      <contour>
        <pt x="323" y="598" on="1"/>
        <pt x="247" y="598" on="1"/>
        <pt x="363" y="745" on="1"/>
        <pt x="483" y="745" on="1"/>
      </contour>
    </TTGlyph>
    <TTGlyph name="at" xMin="105" yMin="-7" xMax="735" yMax="707">
      <contour>
        <pt x="735" y="350" on="1"/>
        <pt x="735" y="267" on="0"/>
        <pt x="702" y="134" on="0"/>
        <pt x="629" y="42" on="0"/>
        <pt x="511" y="-7" on="0"/>
        <pt x="425" y="-7" on="1"/>
        <pt x="340" y="-7" on="0"/>
        <pt x="218" y="41" on="0"/>
        <pt x="141" y="133" on="0"/>
        <pt x="105" y="265" on="0"/>
        <pt x="105" y="350" on="1"/>
        <pt x="105" y="433" on="0"/>
        <pt x="141" y="565" on="0"/>
        <pt x="218" y="658" on="0"/>
        <pt x="339" y="707" on="0"/>
        <pt x="425" y="707" on="1"/>
        <pt x="511" y="707" on="0"/>
        <pt x="629" y="657" on="0"/>
        <pt x="703" y="565" on="0"/>
        <pt x="735" y="433" on="0"/>
      </contour>
      <contour>
        <pt x="658" y="350" on="1"/>
        <pt x="658" y="416" on="0"/>
        <pt x="639" y="523" on="0"/>
        <pt x="587" y="598" on="0"/>
        <pt x="496" y="639" on="0"/>
        <pt x="425" y="639" on="1"/>
        <pt x="354" y="639" on="0"/>
        <pt x="260" y="599" on="0"/>
        <pt x="205" y="524" on="0"/>
        <pt x="182" y="417" on="0"/>
        <pt x="182" y="350" on="1"/>
        <pt x="182" y="284" on="0"/>
        <pt x="205" y="177" on="0"/>
        <pt x="260" y="102" on="0"/>
        <pt x="354" y="61" on="0"/>
        <pt x="425" y="61" on="1"/>
        <pt x="496" y="61" on="0"/>
        <pt x="587" y="102" on="0"/>
        <pt x="639" y="177" on="0"/>
        <pt x="658" y="284" on="0"/>
      </contour>
      <contour>
        <pt x="486" y="427" on="1"/>
        <pt x="486" y="467" on="0"/>
        <pt x="467" y="501" on="0"/>
        <pt x="438" y="501" on="1"/>
        <pt x="427" y="501" on="0"/>
        <pt x="409" y="501" on="0"/>
        <pt x="403" y="500" on="1"/>
        <pt x="396" y="499" on="0"/>
        <pt x="391" y="499" on="1"/>
        <pt x="391" y="356" on="1"/>
        <pt x="438" y="356" on="1"/>
        <pt x="461" y="356" on="0"/>
        <pt x="486" y="382" on="0"/>
      </contour>
      <contour>
        <pt x="541" y="431" on="1"/>
        <pt x="541" y="374" on="0"/>
        <pt x="492" y="308" on="0"/>
        <pt x="439" y="308" on="1"/>
        <pt x="391" y="308" on="1"/>
        <pt x="391" y="159" on="1"/>
        <pt x="337" y="159" on="1"/>
        <pt x="337" y="544" on="1"/>
        <pt x="351" y="545" on="0"/>
        <pt x="367" y="546" on="1"/>
        <pt x="381" y="547" on="0"/>
        <pt x="414" y="547" on="0"/>
        <pt x="431" y="547" on="1"/>
        <pt x="463" y="547" on="0"/>
        <pt x="505" y="530" on="0"/>
        <pt x="530" y="499" on="0"/>
        <pt x="541" y="456" on="0"/>
      </contour>
    </TTGlyph>
    <TTGlyph name="atilde" xMin="77" yMin="260" xMax="186" yMax="360">
      <contour>
        <pt x="77" y="260" on="1"/>
        <pt x="86" y="360" on="1"/>
        <pt x="186" y="360" on="1"/>
        <pt x="177" y="260" on="1"/>
      </contour>
    </TTGlyph>
    <TTGlyph name="b" xMin="84" yMin="0" xMax="325" yMax="495">
      <contour>
        <pt x="84" y="0" on="1"/>
        <pt x="90" y="66" on="1"/>
        <pt x="178" y="66" on="1"/>
        <pt x="210" y="424" on="1"/>
        <pt x="110" y="386" on="1"/>
        <pt x="116" y="457" on="1"/>
        <pt x="208" y="495" on="1"/>
        <pt x="291" y="495" on="1"/>
        <pt x="253" y="66" on="1"/>
        <pt x="325" y="66" on="1"/>
        <pt x="319" y="0" on="1"/>
      </contour>
    </TTGlyph>
    <TTGlyph name="backslash" xMin="-60" yMin="-175" xMax="733" yMax="707">
      <contour>
        <pt x="690" y="0" on="1"/>
        <pt x="605" y="0" on="1"/>
        <pt x="642" y="427" on="1"/>
        <pt x="471" y="427" on="1"/>
        <pt x="430" y="-43" on="1"/>
        <pt x="428" y="-71" on="0"/>
        <pt x="412" y="-119" on="0"/>
        <pt x="381" y="-155" on="0"/>
        <pt x="331" y="-175" on="0"/>
        <pt x="295" y="-175" on="1"/>
        <pt x="283" y="-175" on="0"/>
        <pt x="253" y="-173" on="0"/>
        <pt x="236" y="-171" on="1"/>
        <pt x="242" y="-101" on="1"/>
        <pt x="256" y="-103" on="0"/>
        <pt x="281" y="-103" on="0"/>
        <pt x="288" y="-103" on="1"/>
        <pt x="339" y="-103" on="0"/>
        <pt x="344" y="-48" on="1"/>
        <pt x="386" y="427" on="1"/>
        <pt x="202" y="427" on="1"/>
        <pt x="161" y="-43" on="1"/>
        <pt x="159" y="-71" on="0"/>
        <pt x="143" y="-119" on="0"/>
        <pt x="111" y="-155" on="0"/>
        <pt x="61" y="-175" on="0"/>
        <pt x="25" y="-175" on="1"/>
        <pt x="1" y="-175" on="0"/>
        <pt x="-40" y="-172" on="0"/>
        <pt x="-60" y="-170" on="1"/>
        <pt x="-54" y="-99" on="1"/>
        <pt x="-38" y="-101" on="0"/>
        <pt x="6" y="-103" on="0"/>
        <pt x="18" y="-103" on="1"/>
        <pt x="70" y="-103" on="0"/>
        <pt x="75" y="-48" on="1"/>
        <pt x="117" y="427" on="1"/>
        <pt x="52" y="427" on="1"/>
        <pt x="58" y="500" on="1"/>
        <pt x="123" y="500" on="1"/>
        <pt x="127" y="543" on="1"/>
        <pt x="130" y="578" on="0"/>
        <pt x="150" y="634" on="0"/>
        <pt x="190" y="673" on="0"/>
        <pt x="257" y="693" on="0"/>
        <pt x="307" y="693" on="1"/>
        <pt x="355" y="693" on="0"/>
        <pt x="424" y="680" on="0"/>
        <pt x="446" y="673" on="1"/>
        <pt x="466" y="690" on="0"/>
        <pt x="530" y="707" on="0"/>
        <pt x="577" y="707" on="1"/>
        <pt x="622" y="707" on="0"/>
        <pt x="707" y="692" on="0"/>
        <pt x="729" y="687" on="1"/>
        <pt x="722" y="617" on="1"/>
        <pt x="687" y="628" on="0"/>
        <pt x="611" y="638" on="0"/>
        <pt x="584" y="638" on="1"/>
        <pt x="553" y="638" on="0"/>
        <pt x="515" y="628" on="0"/>
        <pt x="493" y="609" on="0"/>
        <pt x="485" y="582" on="0"/>
        <pt x="483" y="565" on="1"/>
        <pt x="477" y="500" on="1"/>
        <pt x="733" y="500" on="1"/>
      </contour>
      <contour>
        <pt x="397" y="558" on="1"/>
        <pt x="399" y="587" on="0"/>
        <pt x="406" y="611" on="1"/>
        <pt x="380" y="618" on="0"/>
        <pt x="336" y="623" on="0"/>
        <pt x="314" y="623" on="1"/>
        <pt x="284" y="623" on="0"/>
        <pt x="246" y="613" on="0"/>
        <pt x="224" y="594" on="0"/>
        <pt x="215" y="567" on="0"/>
        <pt x="213" y="550" on="1"/>
        <pt x="208" y="500" on="1"/>
        <pt x="392" y="500" on="1"/>
        <pt x="397" y="558" on="1"/>
      </contour>
    </TTGlyph>
    <TTGlyph name="bar" xMin="64" yMin="158" xMax="415" yMax="508">
      <contour>
        <pt x="415" y="333" on="1"/>
        <pt x="64" y="158" on="1"/>
        <pt x="95" y="508" on="1"/>
      </contour>
    </TTGlyph>
    <TTGlyph name="braceleft" xMin="79" yMin="158" xMax="429" yMax="508">
      <contour>
        <pt x="79" y="333" on="1"/>
        <pt x="429" y="508" on="1"/>
        <pt x="398" y="158" on="1"/>
      </contour>
    </TTGlyph>
    <TTGlyph name="braceright" xMin="100" yMin="202" xMax="630" yMax="465">
      <contour>
        <pt x="359" y="465" on="1"/>
        <pt x="351" y="371" on="1"/>
        <pt x="630" y="371" on="1"/>
        <pt x="623" y="296" on="1"/>
        <pt x="344" y="296" on="1"/>
        <pt x="336" y="202" on="1"/>
        <pt x="100" y="333" on="1"/>
      </contour>
    </TTGlyph>
    <TTGlyph name="bracketleft" xMin="-60" yMin="-175" xMax="630" yMax="707">
      <contour>
        <pt x="471" y="427" on="1"/>
        <pt x="430" y="-43" on="1"/>
        <pt x="428" y="-71" on="0"/>
        <pt x="412" y="-119" on="0"/>
        <pt x="380" y="-155" on="0"/>
        <pt x="330" y="-175" on="0"/>
        <pt x="294" y="-175" on="1"/>
        <pt x="280" y="-175" on="0"/>
        <pt x="247" y="-173" on="0"/>
        <pt x="236" y="-171" on="1"/>
        <pt x="242" y="-101" on="1"/>
        <pt x="257" y="-103" on="0"/>
        <pt x="275" y="-103" on="0"/>
        <pt x="287" y="-103" on="1"/>
        <pt x="339" y="-103" on="0"/>
        <pt x="344" y="-48" on="1"/>
        <pt x="386" y="427" on="1"/>
        <pt x="202" y="427" on="1"/>
        <pt x="161" y="-43" on="1"/>
        <pt x="159" y="-71" on="0"/>
        <pt x="143" y="-119" on="0"/>
        <pt x="111" y="-155" on="0"/>
        <pt x="61" y="-175" on="0"/>
        <pt x="25" y="-175" on="1"/>
        <pt x="1" y="-175" on="0"/>
        <pt x="-40" y="-172" on="0"/>
        <pt x="-60" y="-170" on="1"/>
        <pt x="-54" y="-99" on="1"/>
        <pt x="-38" y="-101" on="0"/>
        <pt x="6" y="-103" on="0"/>
        <pt x="18" y="-103" on="1"/>
        <pt x="70" y="-103" on="0"/>
        <pt x="75" y="-48" on="1"/>
        <pt x="117" y="427" on="1"/>
        <pt x="52" y="427" on="1"/>
        <pt x="58" y="500" on="1"/>
        <pt x="123" y="500" on="1"/>
        <pt x="127" y="543" on="1"/>
        <pt x="130" y="578" on="0"/>
        <pt x="150" y="634" on="0"/>
        <pt x="190" y="673" on="0"/>
        <pt x="257" y="693" on="0"/>
        <pt x="307" y="693" on="1"/>
        <pt x="352" y="693" on="0"/>
        <pt x="417" y="682" on="0"/>
        <pt x="439" y="675" on="1"/>
        <pt x="474" y="707" on="0"/>
        <pt x="537" y="707" on="1"/>
        <pt x="569" y="707" on="0"/>
        <pt x="616" y="699" on="0"/>
        <pt x="630" y="696" on="1"/>
        <pt x="624" y="624" on="1"/>
        <pt x="609" y="628" on="0"/>
        <pt x="571" y="635" on="0"/>
        <pt x="544" y="635" on="1"/>
        <pt x="517" y="635" on="0"/>
        <pt x="487" y="607" on="0"/>
        <pt x="485" y="585" on="1"/>
        <pt x="477" y="500" on="1"/>
        <pt x="598" y="500" on="1"/>
        <pt x="592" y="427" on="1"/>
      </contour>
      <contour>
        <pt x="208" y="500" on="1"/>
        <pt x="392" y="500" on="1"/>
        <pt x="399" y="578" on="1"/>
        <pt x="400" y="587" on="0"/>
        <pt x="402" y="604" on="0"/>
        <pt x="404" y="612" on="1"/>
        <pt x="378" y="618" on="0"/>
        <pt x="336" y="623" on="0"/>
        <pt x="314" y="623" on="1"/>
        <pt x="284" y="623" on="0"/>
        <pt x="246" y="613" on="0"/>
        <pt x="224" y="594" on="0"/>
        <pt x="215" y="567" on="0"/>
        <pt x="213" y="550" on="1"/>
      </contour>
    </TTGlyph>
    <TTGlyph name="bracketright" xMin="-60" yMin="-175" xMax="733" yMax="707">
      <contour>
        <pt x="686" y="-43" on="1"/>
        <pt x="683" y="-71" on="0"/>
        <pt x="663" y="-119" on="0"/>
        <pt x="629" y="-155" on="0"/>
        <pt x="581" y="-175" on="0"/>
        <pt x="550" y="-175" on="1"/>
        <pt x="516" y="-175" on="0"/>
        <pt x="492" y="-172" on="1"/>
        <pt x="498" y="-100" on="1"/>
        <pt x="519" y="-103" on="0"/>
        <pt x="543" y="-103" on="1"/>
        <pt x="595" y="-103" on="0"/>
        <pt x="600" y="-48" on="1"/>
        <pt x="642" y="427" on="1"/>
        <pt x="471" y="427" on="1"/>
        <pt x="430" y="-43" on="1"/>
        <pt x="428" y="-71" on="0"/>
        <pt x="412" y="-119" on="0"/>
        <pt x="381" y="-155" on="0"/>
        <pt x="331" y="-175" on="0"/>
        <pt x="295" y="-175" on="1"/>
        <pt x="283" y="-175" on="0"/>
        <pt x="253" y="-173" on="0"/>
        <pt x="236" y="-171" on="1"/>
        <pt x="242" y="-101" on="1"/>
        <pt x="256" y="-103" on="0"/>
        <pt x="281" y="-103" on="0"/>
        <pt x="288" y="-103" on="1"/>
        <pt x="339" y="-103" on="0"/>
        <pt x="344" y="-48" on="1"/>
        <pt x="386" y="427" on="1"/>
        <pt x="202" y="427" on="1"/>
        <pt x="161" y="-43" on="1"/>
        <pt x="159" y="-71" on="0"/>
        <pt x="143" y="-119" on="0"/>
        <pt x="111" y="-155" on="0"/>
        <pt x="61" y="-175" on="0"/>
        <pt x="25" y="-175" on="1"/>
        <pt x="1" y="-175" on="0"/>
        <pt x="-40" y="-172" on="0"/>
        <pt x="-60" y="-170" on="1"/>
        <pt x="-54" y="-99" on="1"/>
        <pt x="-38" y="-101" on="0"/>
        <pt x="6" y="-103" on="0"/>
        <pt x="18" y="-103" on="1"/>
        <pt x="70" y="-103" on="0"/>
        <pt x="75" y="-48" on="1"/>
        <pt x="117" y="427" on="1"/>
        <pt x="52" y="427" on="1"/>
        <pt x="58" y="500" on="1"/>
        <pt x="123" y="500" on="1"/>
        <pt x="127" y="543" on="1"/>
        <pt x="130" y="578" on="0"/>
        <pt x="150" y="634" on="0"/>
        <pt x="190" y="673" on="0"/>
        <pt x="257" y="693" on="0"/>
        <pt x="307" y="693" on="1"/>
        <pt x="355" y="693" on="0"/>
        <pt x="424" y="680" on="0"/>
        <pt x="446" y="673" on="1"/>
        <pt x="466" y="690" on="0"/>
        <pt x="530" y="707" on="0"/>
        <pt x="577" y="707" on="1"/>
        <pt x="622" y="707" on="0"/>
        <pt x="707" y="692" on="0"/>
        <pt x="729" y="687" on="1"/>
        <pt x="722" y="617" on="1"/>
        <pt x="687" y="628" on="0"/>
        <pt x="611" y="638" on="0"/>
        <pt x="584" y="638" on="1"/>
        <pt x="553" y="638" on="0"/>
        <pt x="515" y="628" on="0"/>
        <pt x="493" y="609" on="0"/>
        <pt x="485" y="582" on="0"/>
        <pt x="483" y="565" on="1"/>
        <pt x="477" y="500" on="1"/>
        <pt x="733" y="500" on="1"/>
      </contour>
      <contour>
        <pt x="397" y="558" on="1"/>
        <pt x="399" y="587" on="0"/>
        <pt x="406" y="611" on="1"/>
        <pt x="380" y="618" on="0"/>
        <pt x="336" y="623" on="0"/>
        <pt x="314" y="623" on="1"/>
        <pt x="284" y="623" on="0"/>
        <pt x="246" y="613" on="0"/>
        <pt x="224" y="594" on="0"/>
        <pt x="215" y="567" on="0"/>
        <pt x="213" y="550" on="1"/>
        <pt x="208" y="500" on="1"/>
        <pt x="392" y="500" on="1"/>
        <pt x="397" y="558" on="1"/>
      </contour>
    </TTGlyph>
    <TTGlyph name="breve" xMin="77" yMin="260" xMax="186" yMax="360">
      <contour>
        <pt x="77" y="260" on="1"/>
        <pt x="86" y="360" on="1"/>
        <pt x="186" y="360" on="1"/>
        <pt x="177" y="260" on="1"/>
      </contour>
    </TTGlyph>
    <TTGlyph name="brokenbar" xMin="77" yMin="260" xMax="186" yMax="360">
      <contour>
        <pt x="77" y="260" on="1"/>
        <pt x="86" y="360" on="1"/>
        <pt x="186" y="360" on="1"/>
        <pt x="177" y="260" on="1"/>
      </contour>
    </TTGlyph>
    <TTGlyph name="bullet" xMin="77" yMin="260" xMax="186" yMax="360">
      <contour>
        <pt x="77" y="260" on="1"/>
        <pt x="86" y="360" on="1"/>
        <pt x="186" y="360" on="1"/>
        <pt x="177" y="260" on="1"/>
      </contour>
    </TTGlyph>
    <TTGlyph name="c" xMin="56" yMin="0" xMax="329" yMax="500">
      <contour>
        <pt x="56" y="0" on="1"/>
        <pt x="63" y="71" on="1"/>
        <pt x="188" y="228" on="1"/>
        <pt x="208" y="254" on="0"/>
        <pt x="234" y="292" on="0"/>
        <pt x="249" y="326" on="0"/>
        <pt x="255" y="363" on="0"/>
        <pt x="255" y="388" on="1"/>
        <pt x="255" y="411" on="0"/>
        <pt x="231" y="436" on="0"/>
        <pt x="200" y="436" on="1"/>
        <pt x="176" y="436" on="0"/>
        <pt x="125" y="428" on="0"/>
        <pt x="107" y="424" on="1"/>
        <pt x="112" y="489" on="1"/>
        <pt x="115" y="489" on="0"/>
        <pt x="134" y="493" on="0"/>
        <pt x="160" y="497" on="0"/>
        <pt x="190" y="500" on="0"/>
        <pt x="205" y="500" on="1"/>
        <pt x="268" y="500" on="0"/>
        <pt x="329" y="437" on="0"/>
        <pt x="329" y="383" on="1"/>
        <pt x="329" y="356" on="0"/>
        <pt x="321" y="314" on="0"/>
        <pt x="304" y="275" on="0"/>
        <pt x="276" y="232" on="0"/>
        <pt x="256" y="205" on="1"/>
        <pt x="144" y="65" on="1"/>
        <pt x="308" y="65" on="1"/>
        <pt x="302" y="0" on="1"/>
      </contour>
    </TTGlyph>
    <TTGlyph name="caron" xMin="77" yMin="260" xMax="186" yMax="360">
      <contour>
        <pt x="77" y="260" on="1"/>
        <pt x="86" y="360" on="1"/>
        <pt x="186" y="360" on="1"/>
        <pt x="177" y="260" on="1"/>
      </contour>
    </TTGlyph>
    <TTGlyph name="ccedilla" xMin="77" yMin="260" xMax="186" yMax="360">
      <contour>
        <pt x="77" y="260" on="1"/>
        <pt x="86" y="360" on="1"/>
        <pt x="186" y="360" on="1"/>
        <pt x="177" y="260" on="1"/>
      </contour>
    </TTGlyph>
    <TTGlyph name="cedilla" xMin="77" yMin="260" xMax="186" yMax="360">
      <contour>
        <pt x="77" y="260" on="1"/>
        <pt x="86" y="360" on="1"/>
        <pt x="186" y="360" on="1"/>
        <pt x="177" y="260" on="1"/>
      </contour>
    </TTGlyph>
    <TTGlyph name="cent" xMin="77" yMin="260" xMax="186" yMax="360">
      <contour>
        <pt x="77" y="260" on="1"/>
        <pt x="86" y="360" on="1"/>
        <pt x="186" y="360" on="1"/>
        <pt x="177" y="260" on="1"/>
      </contour>
    </TTGlyph>
    <TTGlyph name="circumflex" xMin="77" yMin="260" xMax="186" yMax="360">
      <contour>
        <pt x="77" y="260" on="1"/>
        <pt x="86" y="360" on="1"/>
        <pt x="186" y="360" on="1"/>
        <pt x="177" y="260" on="1"/>
      </contour>
    </TTGlyph>
    <TTGlyph name="colon" xMin="77" yMin="260" xMax="186" yMax="360">
      <contour>
        <pt x="77" y="260" on="1"/>
        <pt x="86" y="360" on="1"/>
        <pt x="186" y="360" on="1"/>
        <pt x="177" y="260" on="1"/>
      </contour>
    </TTGlyph>
    <TTGlyph name="comma" xMin="87" yMin="579" xMax="400" yMax="714">
      <contour>
        <pt x="184" y="714" on="1"/>
        <pt x="237" y="630" on="1"/>
        <pt x="304" y="714" on="1"/>
        <pt x="400" y="714" on="1"/>
        <pt x="278" y="579" on="1"/>
        <pt x="190" y="579" on="1"/>
        <pt x="87" y="714" on="1"/>
      </contour>
    </TTGlyph>
    <TTGlyph name="copyright" xMin="77" yMin="260" xMax="186" yMax="360">
      <contour>
        <pt x="77" y="260" on="1"/>
        <pt x="86" y="360" on="1"/>
        <pt x="186" y="360" on="1"/>
        <pt x="177" y="260" on="1"/>
      </contour>
    </TTGlyph>
    <TTGlyph name="currency" xMin="52" yMin="47" xMax="558" yMax="553">
      <contour>
        <pt x="442" y="106" on="1"/>
        <pt x="414" y="85" on="0"/>
        <pt x="344" y="65" on="0"/>
        <pt x="305" y="65" on="1"/>
        <pt x="223" y="65" on="0"/>
        <pt x="167" y="106" on="1"/>
        <pt x="108" y="47" on="1"/>
        <pt x="52" y="103" on="1"/>
        <pt x="115" y="166" on="1"/>
        <pt x="101" y="192" on="0"/>
        <pt x="85" y="259" on="0"/>
        <pt x="85" y="300" on="1"/>
        <pt x="85" y="341" on="0"/>
        <pt x="101" y="407" on="0"/>
        <pt x="115" y="433" on="1"/>
        <pt x="52" y="497" on="1"/>
        <pt x="108" y="553" on="1"/>
        <pt x="167" y="494" on="1"/>
        <pt x="225" y="535" on="0"/>
        <pt x="305" y="535" on="1"/>
        <pt x="344" y="535" on="0"/>
        <pt x="414" y="514" on="0"/>
        <pt x="442" y="494" on="1"/>
        <pt x="502" y="553" on="1"/>
        <pt x="558" y="497" on="1"/>
        <pt x="495" y="433" on="1"/>
        <pt x="509" y="407" on="0"/>
        <pt x="525" y="341" on="0"/>
        <pt x="525" y="300" on="1"/>
        <pt x="525" y="259" on="0"/>
        <pt x="509" y="192" on="0"/>
        <pt x="495" y="166" on="1"/>
        <pt x="558" y="103" on="1"/>
        <pt x="502" y="47" on="1"/>
      </contour>
      <contour>
        <pt x="438" y="300" on="1"/>
        <pt x="438" y="341" on="0"/>
        <pt x="418" y="402" on="0"/>
        <pt x="382" y="444" on="0"/>
        <pt x="333" y="465" on="0"/>
        <pt x="305" y="465" on="1"/>
        <pt x="277" y="465" on="0"/>
        <pt x="228" y="444" on="0"/>
        <pt x="192" y="402" on="0"/>
        <pt x="172" y="341" on="0"/>
        <pt x="172" y="300" on="1"/>
        <pt x="172" y="260" on="0"/>
        <pt x="192" y="198" on="0"/>
        <pt x="228" y="156" on="0"/>
        <pt x="277" y="135" on="0"/>
        <pt x="305" y="135" on="1"/>
        <pt x="333" y="135" on="0"/>
        <pt x="382" y="156" on="0"/>
        <pt x="418" y="198" on="0"/>
        <pt x="438" y="260" on="0"/>
      </contour>
    </TTGlyph>
    <TTGlyph name="d" xMin="71" yMin="-5" xMax="327" yMax="500">
      <contour>
        <pt x="314" y="136" on="1"/>
        <pt x="307" y="56" on="0"/>
        <pt x="231" y="-5" on="0"/>
        <pt x="169" y="-5" on="1"/>
        <pt x="155" y="-5" on="0"/>
        <pt x="123" y="-2" on="0"/>
        <pt x="95" y="2" on="0"/>
        <pt x="74" y="5" on="0"/>
        <pt x="71" y="6" on="1"/>
        <pt x="77" y="70" on="1"/>
        <pt x="90" y="67" on="0"/>
        <pt x="145" y="58" on="0"/>
        <pt x="170" y="58" on="1"/>
        <pt x="241" y="58" on="0"/>
        <pt x="241" y="166" on="1"/>
        <pt x="241" y="199" on="0"/>
        <pt x="217" y="233" on="0"/>
        <pt x="183" y="233" on="1"/>
        <pt x="126" y="233" on="1"/>
        <pt x="131" y="296" on="1"/>
        <pt x="181" y="296" on="1"/>
        <pt x="208" y="296" on="0"/>
        <pt x="237" y="319" on="0"/>
        <pt x="251" y="349" on="0"/>
        <pt x="253" y="381" on="0"/>
        <pt x="253" y="390" on="1"/>
        <pt x="253" y="419" on="0"/>
        <pt x="227" y="437" on="0"/>
        <pt x="201" y="437" on="1"/>
        <pt x="176" y="437" on="0"/>
        <pt x="129" y="429" on="0"/>
        <pt x="112" y="425" on="1"/>
        <pt x="117" y="489" on="1"/>
        <pt x="120" y="490" on="0"/>
        <pt x="139" y="493" on="0"/>
        <pt x="165" y="497" on="0"/>
        <pt x="195" y="500" on="0"/>
        <pt x="209" y="500" on="1"/>
        <pt x="233" y="500" on="0"/>
        <pt x="276" y="490" on="0"/>
        <pt x="308" y="465" on="0"/>
        <pt x="327" y="422" on="0"/>
        <pt x="327" y="389" on="1"/>
        <pt x="327" y="333" on="0"/>
        <pt x="293" y="278" on="0"/>
        <pt x="259" y="267" on="1"/>
        <pt x="287" y="261" on="0"/>
        <pt x="316" y="206" on="0"/>
        <pt x="316" y="165" on="1"/>
        <pt x="316" y="160" on="0"/>
        <pt x="315" y="141" on="0"/>
      </contour>
    </TTGlyph>
    <TTGlyph name="dagger" xMin="77" yMin="260" xMax="186" yMax="360">
      <contour>
        <pt x="77" y="260" on="1"/>
        <pt x="86" y="360" on="1"/>
        <pt x="186" y="360" on="1"/>
        <pt x="177" y="260" on="1"/>
      </contour>
    </TTGlyph>
    <TTGlyph name="daggerdbl" xMin="77" yMin="260" xMax="186" yMax="360">
      <contour>
        <pt x="77" y="260" on="1"/>
        <pt x="86" y="360" on="1"/>
        <pt x="186" y="360" on="1"/>
        <pt x="177" y="260" on="1"/>
      </contour>
    </TTGlyph>
    <TTGlyph name="degree" xMin="77" yMin="260" xMax="186" yMax="360">
      <contour>
        <pt x="77" y="260" on="1"/>
        <pt x="86" y="360" on="1"/>
        <pt x="186" y="360" on="1"/>
        <pt x="177" y="260" on="1"/>
      </contour>
    </TTGlyph>
    <TTGlyph name="dieresis" xMin="77" yMin="260" xMax="186" yMax="360">
      <contour>
        <pt x="77" y="260" on="1"/>
        <pt x="86" y="360" on="1"/>
        <pt x="186" y="360" on="1"/>
        <pt x="177" y="260" on="1"/>
      </contour>
    </TTGlyph>
    <TTGlyph name="divide" xMin="77" yMin="260" xMax="186" yMax="360">
      <contour>
        <pt x="77" y="260" on="1"/>
        <pt x="86" y="360" on="1"/>
        <pt x="186" y="360" on="1"/>
        <pt x="177" y="260" on="1"/>
      </contour>
    </TTGlyph>
    <TTGlyph name="dollar" xMin="85" yMin="-110" xMax="245" yMax="810">
      <contour>
        <pt x="85" y="-110" on="1"/>
        <pt x="116" y="250" on="1"/>
        <pt x="196" y="250" on="1"/>
        <pt x="165" y="-110" on="1"/>
      </contour>
      <contour>
        <pt x="134" y="450" on="1"/>
        <pt x="165" y="810" on="1"/>
        <pt x="245" y="810" on="1"/>
        <pt x="214" y="450" on="1"/>
      </contour>
    </TTGlyph>
    <TTGlyph name="dotaccent" xMin="77" yMin="260" xMax="186" yMax="360">
      <contour>
        <pt x="77" y="260" on="1"/>
        <pt x="86" y="360" on="1"/>
        <pt x="186" y="360" on="1"/>
        <pt x="177" y="260" on="1"/>
      </contour>
    </TTGlyph>
    <TTGlyph name="dotlessi" xMin="77" yMin="260" xMax="186" yMax="360">
      <contour>
        <pt x="77" y="260" on="1"/>
        <pt x="86" y="360" on="1"/>
        <pt x="186" y="360" on="1"/>
        <pt x="177" y="260" on="1"/>
      </contour>
    </TTGlyph>
    <TTGlyph name="dotmath" xMin="77" yMin="260" xMax="186" yMax="360">
      <contour>
        <pt x="77" y="260" on="1"/>
        <pt x="86" y="360" on="1"/>
        <pt x="186" y="360" on="1"/>
        <pt x="177" y="260" on="1"/>
      </contour>
    </TTGlyph>
    <TTGlyph name="e" xMin="84" yMin="0" xMax="360" yMax="495">
      <contour>
        <pt x="305" y="117" on="1"/>
        <pt x="294" y="0" on="1"/>
        <pt x="220" y="0" on="1"/>
        <pt x="231" y="117" on="1"/>
        <pt x="84" y="117" on="1"/>
        <pt x="90" y="191" on="1"/>
        <pt x="191" y="495" on="1"/>
        <pt x="260" y="495" on="1"/>
        <pt x="159" y="181" on="1"/>
        <pt x="236" y="181" on="1"/>
        <pt x="249" y="324" on="1"/>
        <pt x="323" y="324" on="1"/>
        <pt x="310" y="181" on="1"/>
        <pt x="360" y="181" on="1"/>
        <pt x="355" y="117" on="1"/>
      </contour>
    </TTGlyph>
    <TTGlyph name="eacute" xMin="77" yMin="260" xMax="186" yMax="360">
      <contour>
        <pt x="77" y="260" on="1"/>
        <pt x="86" y="360" on="1"/>
        <pt x="186" y="360" on="1"/>
        <pt x="177" y="260" on="1"/>
      </contour>
    </TTGlyph>
    <TTGlyph name="ecircumflex" xMin="77" yMin="260" xMax="186" yMax="360">
      <contour>
        <pt x="77" y="260" on="1"/>
        <pt x="86" y="360" on="1"/>
        <pt x="186" y="360" on="1"/>
        <pt x="177" y="260" on="1"/>
      </contour>
    </TTGlyph>
    <TTGlyph name="edieresis" xMin="77" yMin="260" xMax="186" yMax="360">
      <contour>
        <pt x="77" y="260" on="1"/>
        <pt x="86" y="360" on="1"/>
        <pt x="186" y="360" on="1"/>
        <pt x="177" y="260" on="1"/>
      </contour>
    </TTGlyph>
    <TTGlyph name="egrave" xMin="77" yMin="260" xMax="186" yMax="360">
      <contour>
        <pt x="77" y="260" on="1"/>
        <pt x="86" y="360" on="1"/>
        <pt x="186" y="360" on="1"/>
        <pt x="177" y="260" on="1"/>
      </contour>
    </TTGlyph>
    <TTGlyph name="eight" xMin="77" yMin="260" xMax="186" yMax="360">
      <contour>
        <pt x="77" y="260" on="1"/>
        <pt x="86" y="360" on="1"/>
        <pt x="186" y="360" on="1"/>
        <pt x="177" y="260" on="1"/>
      </contour>
    </TTGlyph>
    <TTGlyph name="ellipsis" xMin="77" yMin="260" xMax="186" yMax="360">
      <contour>
        <pt x="77" y="260" on="1"/>
        <pt x="86" y="360" on="1"/>
        <pt x="186" y="360" on="1"/>
        <pt x="177" y="260" on="1"/>
      </contour>
    </TTGlyph>
    <TTGlyph name="emdash" xMin="77" yMin="260" xMax="186" yMax="360">
      <contour>
        <pt x="77" y="260" on="1"/>
        <pt x="86" y="360" on="1"/>
        <pt x="186" y="360" on="1"/>
        <pt x="177" y="260" on="1"/>
      </contour>
    </TTGlyph>
    <TTGlyph name="endash" xMin="77" yMin="260" xMax="186" yMax="360">
      <contour>
        <pt x="77" y="260" on="1"/>
        <pt x="86" y="360" on="1"/>
        <pt x="186" y="360" on="1"/>
        <pt x="177" y="260" on="1"/>
      </contour>
    </TTGlyph>
    <TTGlyph name="equal" xMin="81" yMin="70" xMax="503" yMax="555">
      <contour>
        <pt x="376" y="375" on="1"/>
        <pt x="288" y="250" on="1"/>
        <pt x="476" y="250" on="1"/>
        <pt x="470" y="175" on="1"/>
        <pt x="235" y="175" on="1"/>
        <pt x="161" y="70" on="1"/>
        <pt x="81" y="70" on="1"/>
        <pt x="155" y="175" on="1"/>
        <pt x="90" y="175" on="1"/>
        <pt x="96" y="250" on="1"/>
        <pt x="208" y="250" on="1"/>
        <pt x="296" y="375" on="1"/>
        <pt x="107" y="375" on="1"/>
        <pt x="114" y="450" on="1"/>
        <pt x="349" y="450" on="1"/>
        <pt x="423" y="555" on="1"/>
        <pt x="503" y="555" on="1"/>
        <pt x="429" y="450" on="1"/>
        <pt x="494" y="450" on="1"/>
        <pt x="487" y="375" on="1"/>
      </contour>
    </TTGlyph>
    <TTGlyph name="eth" xMin="77" yMin="260" xMax="186" yMax="360">
      <contour>
        <pt x="77" y="260" on="1"/>
        <pt x="86" y="360" on="1"/>
        <pt x="186" y="360" on="1"/>
        <pt x="177" y="260" on="1"/>
      </contour>
    </TTGlyph>
    <TTGlyph name="exclam" xMin="89" yMin="155" xMax="510" yMax="629">
      <contour>
        <pt x="89" y="155" on="1"/>
        <pt x="95" y="230" on="1"/>
        <pt x="475" y="230" on="1"/>
        <pt x="469" y="155" on="1"/>
      </contour>
      <contour>
        <pt x="106" y="355" on="1"/>
        <pt x="113" y="430" on="1"/>
        <pt x="493" y="430" on="1"/>
        <pt x="486" y="355" on="1"/>
      </contour>
      <contour>
        <pt x="127" y="596" on="1"/>
        <pt x="164" y="617" on="0"/>
        <pt x="217" y="629" on="0"/>
        <pt x="239" y="629" on="1"/>
        <pt x="265" y="629" on="0"/>
        <pt x="308" y="617" on="0"/>
        <pt x="347" y="602" on="0"/>
        <pt x="385" y="590" on="0"/>
        <pt x="404" y="590" on="1"/>
        <pt x="430" y="590" on="0"/>
        <pt x="487" y="612" on="0"/>
        <pt x="510" y="626" on="1"/>
        <pt x="503" y="548" on="1"/>
        <pt x="479" y="533" on="0"/>
        <pt x="419" y="515" on="0"/>
        <pt x="391" y="515" on="1"/>
        <pt x="365" y="515" on="0"/>
        <pt x="323" y="527" on="0"/>
        <pt x="285" y="542" on="0"/>
        <pt x="248" y="554" on="0"/>
        <pt x="227" y="554" on="1"/>
        <pt x="201" y="554" on="0"/>
        <pt x="143" y="532" on="0"/>
        <pt x="121" y="518" on="1"/>
      </contour>
    </TTGlyph>
    <TTGlyph name="exclamdown" xMin="77" yMin="260" xMax="186" yMax="360">
      <contour>
        <pt x="77" y="260" on="1"/>
        <pt x="86" y="360" on="1"/>
        <pt x="186" y="360" on="1"/>
        <pt x="177" y="260" on="1"/>
      </contour>
    </TTGlyph>
    <TTGlyph name="f" xMin="87" yMin="-5" xMax="336" yMax="495">
      <contour>
        <pt x="201" y="431" on="1"/>
        <pt x="190" y="306" on="1"/>
        <pt x="199" y="306" on="1"/>
        <pt x="272" y="306" on="0"/>
        <pt x="328" y="246" on="0"/>
        <pt x="328" y="184" on="1"/>
        <pt x="328" y="130" on="0"/>
        <pt x="307" y="57" on="0"/>
        <pt x="269" y="14" on="0"/>
        <pt x="214" y="-5" on="0"/>
        <pt x="180" y="-5" on="1"/>
        <pt x="151" y="-5" on="0"/>
        <pt x="104" y="3" on="0"/>
        <pt x="87" y="6" on="1"/>
        <pt x="93" y="70" on="1"/>
        <pt x="102" y="68" on="0"/>
        <pt x="154" y="59" on="0"/>
        <pt x="186" y="59" on="1"/>
        <pt x="226" y="59" on="0"/>
        <pt x="254" y="126" on="0"/>
        <pt x="254" y="183" on="1"/>
        <pt x="254" y="222" on="0"/>
        <pt x="227" y="243" on="0"/>
        <pt x="195" y="243" on="1"/>
        <pt x="115" y="243" on="1"/>
        <pt x="137" y="495" on="1"/>
        <pt x="336" y="495" on="1"/>
        <pt x="330" y="431" on="1"/>
      </contour>
    </TTGlyph>
    <TTGlyph name="fi" xMin="77" yMin="260" xMax="186" yMax="360">
      <contour>
        <pt x="77" y="260" on="1"/>
        <pt x="86" y="360" on="1"/>
        <pt x="186" y="360" on="1"/>
        <pt x="177" y="260" on="1"/>
      </contour>
    </TTGlyph>
    <TTGlyph name="five" xMin="77" yMin="260" xMax="186" yMax="360">
      <contour>
        <pt x="77" y="260" on="1"/>
        <pt x="86" y="360" on="1"/>
        <pt x="186" y="360" on="1"/>
        <pt x="177" y="260" on="1"/>
      </contour>
    </TTGlyph>
    <TTGlyph name="fl" xMin="77" yMin="260" xMax="186" yMax="360">
      <contour>
        <pt x="77" y="260" on="1"/>
        <pt x="86" y="360" on="1"/>
        <pt x="186" y="360" on="1"/>
        <pt x="177" y="260" on="1"/>
      </contour>
    </TTGlyph>
    <TTGlyph name="florin" xMin="77" yMin="260" xMax="186" yMax="360">
      <contour>
        <pt x="77" y="260" on="1"/>
        <pt x="86" y="360" on="1"/>
        <pt x="186" y="360" on="1"/>
        <pt x="177" y="260" on="1"/>
      </contour>
    </TTGlyph>
    <TTGlyph name="four" xMin="77" yMin="260" xMax="186" yMax="360">
      <contour>
        <pt x="77" y="260" on="1"/>
        <pt x="86" y="360" on="1"/>
        <pt x="186" y="360" on="1"/>
        <pt x="177" y="260" on="1"/>
      </contour>
    </TTGlyph>
    <TTGlyph name="fraction" xMin="77" yMin="260" xMax="186" yMax="360">
      <contour>
        <pt x="77" y="260" on="1"/>
        <pt x="86" y="360" on="1"/>
        <pt x="186" y="360" on="1"/>
        <pt x="177" y="260" on="1"/>
      </contour>
    </TTGlyph>
    <TTGlyph name="g" xMin="96" yMin="-5" xMax="361" yMax="500">
      <contour>
        <pt x="359" y="158" on="1"/>
        <pt x="351" y="70" on="0"/>
        <pt x="276" y="-5" on="0"/>
        <pt x="210" y="-5" on="1"/>
        <pt x="183" y="-5" on="0"/>
        <pt x="141" y="10" on="0"/>
        <pt x="112" y="51" on="0"/>
        <pt x="96" y="121" on="0"/>
        <pt x="96" y="176" on="1"/>
        <pt x="96" y="279" on="0"/>
        <pt x="123" y="406" on="0"/>
        <pt x="173" y="476" on="0"/>
        <pt x="244" y="500" on="0"/>
        <pt x="287" y="500" on="1"/>
        <pt x="304" y="500" on="0"/>
        <pt x="349" y="493" on="0"/>
        <pt x="358" y="491" on="1"/>
        <pt x="353" y="427" on="1"/>
        <pt x="338" y="431" on="0"/>
        <pt x="301" y="438" on="0"/>
        <pt x="277" y="438" on="1"/>
        <pt x="257" y="438" on="0"/>
        <pt x="225" y="428" on="0"/>
        <pt x="201" y="398" on="0"/>
        <pt x="184" y="345" on="0"/>
        <pt x="178" y="302" on="1"/>
        <pt x="190" y="310" on="0"/>
        <pt x="227" y="324" on="0"/>
        <pt x="253" y="324" on="1"/>
        <pt x="315" y="324" on="0"/>
        <pt x="361" y="258" on="0"/>
        <pt x="361" y="199" on="1"/>
        <pt x="361" y="189" on="0"/>
        <pt x="360" y="169" on="0"/>
      </contour>
      <contour>
        <pt x="242" y="262" on="1"/>
        <pt x="217" y="262" on="0"/>
        <pt x="182" y="249" on="0"/>
        <pt x="173" y="244" on="1"/>
        <pt x="167" y="180" on="0"/>
        <pt x="167" y="142" on="1"/>
        <pt x="167" y="115" on="0"/>
        <pt x="173" y="82" on="0"/>
        <pt x="185" y="65" on="0"/>
        <pt x="203" y="59" on="0"/>
        <pt x="215" y="59" on="1"/>
        <pt x="237" y="59" on="0"/>
        <pt x="265" y="79" on="0"/>
        <pt x="282" y="117" on="0"/>
        <pt x="288" y="170" on="0"/>
        <pt x="288" y="204" on="1"/>
        <pt x="288" y="236" on="0"/>
        <pt x="268" y="262" on="0"/>
      </contour>
    </TTGlyph>
    <TTGlyph name="germandbls" xMin="77" yMin="260" xMax="186" yMax="360">
      <contour>
        <pt x="77" y="260" on="1"/>
        <pt x="86" y="360" on="1"/>
        <pt x="186" y="360" on="1"/>
        <pt x="177" y="260" on="1"/>
      </contour>
    </TTGlyph>
    <TTGlyph name="grave" xMin="80" yMin="235" xMax="244" yMax="390">
      <contour>
        <pt x="80" y="235" on="1"/>
        <pt x="94" y="390" on="1"/>
        <pt x="244" y="390" on="1"/>
        <pt x="230" y="235" on="1"/>
      </contour>
    </TTGlyph>
    <TTGlyph name="greater" xMin="75" yMin="0" xMax="488" yMax="565">
      <contour>
        <pt x="85" y="125" on="1"/>
        <pt x="94" y="220" on="1"/>
        <pt x="412" y="337" on="1"/>
        <pt x="116" y="473" on="1"/>
        <pt x="124" y="565" on="1"/>
        <pt x="488" y="385" on="1"/>
        <pt x="479" y="280" on="1"/>
      </contour>
      <contour>
        <pt x="75" y="0" on="1"/>
        <pt x="81" y="75" on="1"/>
        <pt x="461" y="75" on="1"/>
        <pt x="455" y="0" on="1"/>
      </contour>
    </TTGlyph>
    <TTGlyph name="greaterequal" xMin="77" yMin="260" xMax="186" yMax="360">
      <contour>
        <pt x="77" y="260" on="1"/>
        <pt x="86" y="360" on="1"/>
        <pt x="186" y="360" on="1"/>
        <pt x="177" y="260" on="1"/>
      </contour>
    </TTGlyph>
    <TTGlyph name="guillemotleft" xMin="77" yMin="260" xMax="186" yMax="360">
      <contour>
        <pt x="77" y="260" on="1"/>
        <pt x="86" y="360" on="1"/>
        <pt x="186" y="360" on="1"/>
        <pt x="177" y="260" on="1"/>
      </contour>
    </TTGlyph>
    <TTGlyph name="guillemotright" xMin="77" yMin="260" xMax="186" yMax="360">
      <contour>
        <pt x="77" y="260" on="1"/>
        <pt x="86" y="360" on="1"/>
        <pt x="186" y="360" on="1"/>
        <pt x="177" y="260" on="1"/>
      </contour>
    </TTGlyph>
    <TTGlyph name="guilsinglleft" xMin="77" yMin="260" xMax="186" yMax="360">
      <contour>
        <pt x="77" y="260" on="1"/>
        <pt x="86" y="360" on="1"/>
        <pt x="186" y="360" on="1"/>
        <pt x="177" y="260" on="1"/>
      </contour>
    </TTGlyph>
    <TTGlyph name="guilsinglright" xMin="77" yMin="260" xMax="186" yMax="360">
      <contour>
        <pt x="77" y="260" on="1"/>
        <pt x="86" y="360" on="1"/>
        <pt x="186" y="360" on="1"/>
        <pt x="177" y="260" on="1"/>
      </contour>
    </TTGlyph>
    <TTGlyph name="h" xMin="124" yMin="0" xMax="360" yMax="495">
      <contour>
        <pt x="198" y="0" on="1"/>
        <pt x="124" y="0" on="1"/>
        <pt x="284" y="430" on="1"/>
        <pt x="125" y="430" on="1"/>
        <pt x="131" y="495" on="1"/>
        <pt x="360" y="495" on="1"/>
        <pt x="353" y="414" on="1"/>
      </contour>
    </TTGlyph>
    <TTGlyph name="hungarumlaut" xMin="77" yMin="260" xMax="186" yMax="360">
      <contour>
        <pt x="77" y="260" on="1"/>
        <pt x="86" y="360" on="1"/>
        <pt x="186" y="360" on="1"/>
        <pt x="177" y="260" on="1"/>
      </contour>
    </TTGlyph>
    <TTGlyph name="hyphen" xMin="99" yMin="275" xMax="430" yMax="350">
      <contour>
        <pt x="99" y="275" on="1"/>
        <pt x="105" y="350" on="1"/>
        <pt x="430" y="350" on="1"/>
        <pt x="424" y="275" on="1"/>
      </contour>
    </TTGlyph>
    <TTGlyph name="i" xMin="76" yMin="-5" xMax="382" yMax="500">
      <contour>
        <pt x="297" y="129" on="1"/>
        <pt x="298" y="137" on="0"/>
        <pt x="298" y="152" on="0"/>
        <pt x="298" y="159" on="1"/>
        <pt x="298" y="177" on="0"/>
        <pt x="291" y="203" on="0"/>
        <pt x="271" y="221" on="0"/>
        <pt x="236" y="230" on="0"/>
        <pt x="207" y="230" on="1"/>
        <pt x="191" y="221" on="0"/>
        <pt x="170" y="202" on="0"/>
        <pt x="157" y="176" on="0"/>
        <pt x="152" y="141" on="0"/>
        <pt x="152" y="115" on="1"/>
        <pt x="152" y="80" on="0"/>
        <pt x="188" y="57" on="0"/>
        <pt x="217" y="57" on="1"/>
        <pt x="249" y="57" on="0"/>
        <pt x="293" y="85" on="0"/>
      </contour>
      <contour>
        <pt x="310" y="382" on="1"/>
        <pt x="310" y="438" on="0"/>
        <pt x="251" y="438" on="1"/>
        <pt x="213" y="438" on="0"/>
        <pt x="180" y="393" on="0"/>
        <pt x="180" y="344" on="1"/>
        <pt x="180" y="309" on="0"/>
        <pt x="212" y="286" on="0"/>
        <pt x="259" y="286" on="1"/>
        <pt x="275" y="292" on="0"/>
        <pt x="294" y="310" on="0"/>
        <pt x="304" y="335" on="0"/>
        <pt x="309" y="365" on="0"/>
      </contour>
      <contour>
        <pt x="371" y="137" on="1"/>
        <pt x="365" y="66" on="0"/>
        <pt x="292" y="-5" on="0"/>
        <pt x="212" y="-5" on="1"/>
        <pt x="147" y="-5" on="0"/>
        <pt x="76" y="57" on="0"/>
        <pt x="76" y="118" on="1"/>
        <pt x="76" y="147" on="0"/>
        <pt x="90" y="190" on="0"/>
        <pt x="112" y="221" on="0"/>
        <pt x="139" y="242" on="0"/>
        <pt x="152" y="251" on="1"/>
        <pt x="129" y="262" on="0"/>
        <pt x="106" y="314" on="0"/>
        <pt x="106" y="348" on="1"/>
        <pt x="106" y="426" on="0"/>
        <pt x="188" y="500" on="0"/>
        <pt x="256" y="500" on="1"/>
        <pt x="281" y="500" on="0"/>
        <pt x="327" y="486" on="0"/>
        <pt x="361" y="457" on="0"/>
        <pt x="382" y="413" on="0"/>
        <pt x="382" y="382" on="1"/>
        <pt x="382" y="349" on="0"/>
        <pt x="357" y="289" on="0"/>
        <pt x="314" y="266" on="1"/>
        <pt x="346" y="258" on="0"/>
        <pt x="372" y="201" on="0"/>
        <pt x="372" y="163" on="1"/>
        <pt x="372" y="156" on="0"/>
        <pt x="372" y="144" on="0"/>
      </contour>
    </TTGlyph>
    <TTGlyph name="iacute" xMin="77" yMin="260" xMax="186" yMax="360">
      <contour>
        <pt x="77" y="260" on="1"/>
        <pt x="86" y="360" on="1"/>
        <pt x="186" y="360" on="1"/>
        <pt x="177" y="260" on="1"/>
      </contour>
    </TTGlyph>
    <TTGlyph name="icircumflex" xMin="77" yMin="260" xMax="186" yMax="360">
      <contour>
        <pt x="77" y="260" on="1"/>
        <pt x="86" y="360" on="1"/>
        <pt x="186" y="360" on="1"/>
        <pt x="177" y="260" on="1"/>
      </contour>
    </TTGlyph>
    <TTGlyph name="idieresis" xMin="77" yMin="260" xMax="186" yMax="360">
      <contour>
        <pt x="77" y="260" on="1"/>
        <pt x="86" y="360" on="1"/>
        <pt x="186" y="360" on="1"/>
        <pt x="177" y="260" on="1"/>
      </contour>
    </TTGlyph>
    <TTGlyph name="igrave" xMin="77" yMin="260" xMax="186" yMax="360">
      <contour>
        <pt x="77" y="260" on="1"/>
        <pt x="86" y="360" on="1"/>
        <pt x="186" y="360" on="1"/>
        <pt x="177" y="260" on="1"/>
      </contour>
    </TTGlyph>
    <TTGlyph name="infinity" xMin="77" yMin="260" xMax="186" yMax="360">
      <contour>
        <pt x="77" y="260" on="1"/>
        <pt x="86" y="360" on="1"/>
        <pt x="186" y="360" on="1"/>
        <pt x="177" y="260" on="1"/>
      </contour>
    </TTGlyph>
    <TTGlyph name="integral" xMin="77" yMin="260" xMax="186" yMax="360">
      <contour>
        <pt x="77" y="260" on="1"/>
        <pt x="86" y="360" on="1"/>
        <pt x="186" y="360" on="1"/>
        <pt x="177" y="260" on="1"/>
      </contour>
    </TTGlyph>
    <TTGlyph name="j" xMin="135" yMin="-4" xMax="400" yMax="501">
      <contour>
        <pt x="137" y="338" on="1"/>
        <pt x="145" y="426" on="0"/>
        <pt x="223" y="501" on="0"/>
        <pt x="286" y="501" on="1"/>
        <pt x="314" y="501" on="0"/>
        <pt x="356" y="487" on="0"/>
        <pt x="385" y="448" on="0"/>
        <pt x="400" y="380" on="0"/>
        <pt x="400" y="326" on="1"/>
        <pt x="400" y="221" on="0"/>
        <pt x="374" y="92" on="0"/>
        <pt x="325" y="21" on="0"/>
        <pt x="255" y="-4" on="0"/>
        <pt x="211" y="-4" on="1"/>
        <pt x="194" y="-4" on="0"/>
        <pt x="152" y="1" on="0"/>
        <pt x="143" y="3" on="1"/>
        <pt x="148" y="67" on="1"/>
        <pt x="163" y="63" on="0"/>
        <pt x="198" y="58" on="0"/>
        <pt x="222" y="58" on="1"/>
        <pt x="242" y="58" on="0"/>
        <pt x="272" y="68" on="0"/>
        <pt x="295" y="97" on="0"/>
        <pt x="311" y="150" on="0"/>
        <pt x="317" y="193" on="1"/>
        <pt x="304" y="185" on="0"/>
        <pt x="268" y="172" on="0"/>
        <pt x="243" y="172" on="1"/>
        <pt x="183" y="172" on="0"/>
        <pt x="135" y="238" on="0"/>
        <pt x="135" y="299" on="1"/>
        <pt x="135" y="308" on="0"/>
        <pt x="136" y="327" on="0"/>
      </contour>
      <contour>
        <pt x="254" y="234" on="1"/>
        <pt x="279" y="234" on="0"/>
        <pt x="314" y="247" on="0"/>
        <pt x="323" y="252" on="1"/>
        <pt x="329" y="318" on="0"/>
        <pt x="329" y="356" on="1"/>
        <pt x="329" y="382" on="0"/>
        <pt x="323" y="414" on="0"/>
        <pt x="312" y="431" on="0"/>
        <pt x="294" y="437" on="0"/>
        <pt x="282" y="437" on="1"/>
        <pt x="237" y="437" on="0"/>
        <pt x="209" y="358" on="0"/>
        <pt x="209" y="289" on="1"/>
        <pt x="209" y="258" on="0"/>
        <pt x="228" y="234" on="0"/>
      </contour>
    </TTGlyph>
    <TTGlyph name="k" xMin="99" yMin="275" xMax="485" yMax="350">
      <contour>
        <pt x="99" y="275" on="1"/>
        <pt x="105" y="350" on="1"/>
        <pt x="485" y="350" on="1"/>
        <pt x="479" y="275" on="1"/>
      </contour>
    </TTGlyph>
    <TTGlyph name="l" xMin="72" yMin="-2" xMax="542" yMax="500">
      <contour>
        <pt x="445" y="427" on="1"/>
        <pt x="421" y="137" on="1"/>
        <pt x="420" y="129" on="0"/>
        <pt x="418" y="106" on="0"/>
        <pt x="418" y="103" on="1"/>
        <pt x="418" y="85" on="0"/>
        <pt x="431" y="70" on="0"/>
        <pt x="448" y="70" on="1"/>
        <pt x="456" y="70" on="0"/>
        <pt x="471" y="74" on="0"/>
        <pt x="475" y="75" on="1"/>
        <pt x="469" y="5" on="1"/>
        <pt x="458" y="3" on="0"/>
        <pt x="428" y="-2" on="0"/>
        <pt x="408" y="-2" on="1"/>
        <pt x="395" y="-2" on="0"/>
        <pt x="367" y="7" on="0"/>
        <pt x="346" y="28" on="0"/>
        <pt x="332" y="65" on="0"/>
        <pt x="332" y="92" on="1"/>
        <pt x="332" y="97" on="0"/>
        <pt x="333" y="112" on="0"/>
        <pt x="334" y="122" on="1"/>
        <pt x="360" y="427" on="1"/>
        <pt x="235" y="427" on="1"/>
        <pt x="199" y="0" on="1"/>
        <pt x="114" y="0" on="1"/>
        <pt x="150" y="427" on="1"/>
        <pt x="72" y="427" on="1"/>
        <pt x="78" y="500" on="1"/>
        <pt x="542" y="500" on="1"/>
        <pt x="536" y="427" on="1"/>
      </contour>
    </TTGlyph>
    <TTGlyph name="less" xMin="75" yMin="0" xMax="504" yMax="564">
      <contour>
        <pt x="99" y="280" on="1"/>
        <pt x="108" y="385" on="1"/>
        <pt x="504" y="564" on="1"/>
        <pt x="496" y="471" on="1"/>
        <pt x="176" y="335" on="1"/>
        <pt x="474" y="218" on="1"/>
        <pt x="465" y="125" on="1"/>
      </contour>
      <contour>
        <pt x="75" y="0" on="1"/>
        <pt x="81" y="75" on="1"/>
        <pt x="461" y="75" on="1"/>
        <pt x="455" y="0" on="1"/>
      </contour>
    </TTGlyph>
    <TTGlyph name="lessequal" xMin="77" yMin="260" xMax="186" yMax="360">
      <contour>
        <pt x="77" y="260" on="1"/>
        <pt x="86" y="360" on="1"/>
        <pt x="186" y="360" on="1"/>
        <pt x="177" y="260" on="1"/>
      </contour>
    </TTGlyph>
    <TTGlyph name="logicaland" xMin="77" yMin="260" xMax="186" yMax="360">
      <contour>
        <pt x="77" y="260" on="1"/>
        <pt x="86" y="360" on="1"/>
        <pt x="186" y="360" on="1"/>
        <pt x="177" y="260" on="1"/>
      </contour>
    </TTGlyph>
    <TTGlyph name="logicalnot" xMin="77" yMin="260" xMax="186" yMax="360">
      <contour>
        <pt x="77" y="260" on="1"/>
        <pt x="86" y="360" on="1"/>
        <pt x="186" y="360" on="1"/>
        <pt x="177" y="260" on="1"/>
      </contour>
    </TTGlyph>
    <TTGlyph name="lozenge" xMin="77" yMin="260" xMax="186" yMax="360">
      <contour>
        <pt x="77" y="260" on="1"/>
        <pt x="86" y="360" on="1"/>
        <pt x="186" y="360" on="1"/>
        <pt x="177" y="260" on="1"/>
      </contour>
    </TTGlyph>
    <TTGlyph name="lslash" xMin="77" yMin="260" xMax="186" yMax="360">
      <contour>
        <pt x="77" y="260" on="1"/>
        <pt x="86" y="360" on="1"/>
        <pt x="186" y="360" on="1"/>
        <pt x="177" y="260" on="1"/>
      </contour>
    </TTGlyph>
    <TTGlyph name="m" xMin="66" yMin="-7" xMax="437" yMax="707">
      <contour>
        <pt x="68" y="213" on="1"/>
        <pt x="73" y="265" on="0"/>
        <pt x="90" y="350" on="0"/>
        <pt x="129" y="411" on="0"/>
        <pt x="194" y="444" on="0"/>
        <pt x="246" y="444" on="1"/>
        <pt x="283" y="444" on="0"/>
        <pt x="333" y="424" on="0"/>
        <pt x="349" y="414" on="1"/>
        <pt x="352" y="456" on="0"/>
        <pt x="352" y="488" on="1"/>
        <pt x="352" y="537" on="0"/>
        <pt x="340" y="596" on="0"/>
        <pt x="316" y="627" on="0"/>
        <pt x="280" y="637" on="0"/>
        <pt x="256" y="637" on="1"/>
        <pt x="224" y="637" on="0"/>
        <pt x="169" y="626" on="0"/>
        <pt x="149" y="621" on="1"/>
        <pt x="155" y="692" on="1"/>
        <pt x="161" y="694" on="0"/>
        <pt x="185" y="699" on="0"/>
        <pt x="212" y="704" on="0"/>
        <pt x="240" y="707" on="0"/>
        <pt x="252" y="707" on="1"/>
        <pt x="296" y="707" on="0"/>
        <pt x="364" y="689" on="0"/>
        <pt x="412" y="640" on="0"/>
        <pt x="437" y="551" on="0"/>
        <pt x="437" y="479" on="1"/>
        <pt x="437" y="458" on="0"/>
        <pt x="434" y="411" on="0"/>
        <pt x="432" y="384" on="1"/>
        <pt x="421" y="259" on="0"/>
        <pt x="391" y="106" on="0"/>
        <pt x="343" y="22" on="0"/>
        <pt x="272" y="-7" on="0"/>
        <pt x="221" y="-7" on="1"/>
        <pt x="190" y="-7" on="0"/>
        <pt x="134" y="11" on="0"/>
        <pt x="91" y="53" on="0"/>
        <pt x="66" y="122" on="0"/>
        <pt x="66" y="174" on="1"/>
        <pt x="66" y="183" on="0"/>
        <pt x="67" y="202" on="0"/>
      </contour>
      <contour>
        <pt x="247" y="372" on="1"/>
        <pt x="220" y="372" on="0"/>
        <pt x="186" y="352" on="0"/>
        <pt x="166" y="310" on="0"/>
        <pt x="156" y="248" on="0"/>
        <pt x="153" y="206" on="1"/>
        <pt x="152" y="195" on="0"/>
        <pt x="151" y="176" on="0"/>
        <pt x="151" y="167" on="1"/>
        <pt x="151" y="116" on="0"/>
        <pt x="188" y="65" on="0"/>
        <pt x="233" y="65" on="1"/>
        <pt x="255" y="65" on="0"/>
        <pt x="288" y="84" on="0"/>
        <pt x="315" y="143" on="0"/>
        <pt x="335" y="253" on="0"/>
        <pt x="343" y="345" on="1"/>
        <pt x="335" y="350" on="0"/>
        <pt x="285" y="372" on="0"/>
      </contour>
    </TTGlyph>
    <TTGlyph name="macron" xMin="77" yMin="260" xMax="186" yMax="360">
      <contour>
        <pt x="77" y="260" on="1"/>
        <pt x="86" y="360" on="1"/>
        <pt x="186" y="360" on="1"/>
        <pt x="177" y="260" on="1"/>
      </contour>
    </TTGlyph>
    <TTGlyph name="minus" xMin="77" yMin="260" xMax="186" yMax="360">
      <contour>
        <pt x="77" y="260" on="1"/>
        <pt x="86" y="360" on="1"/>
        <pt x="186" y="360" on="1"/>
        <pt x="177" y="260" on="1"/>
      </contour>
    </TTGlyph>
    <TTGlyph name="mu" xMin="77" yMin="260" xMax="186" yMax="360">
      <contour>
        <pt x="77" y="260" on="1"/>
        <pt x="86" y="360" on="1"/>
        <pt x="186" y="360" on="1"/>
        <pt x="177" y="260" on="1"/>
      </contour>
    </TTGlyph>
    <TTGlyph name="multiply" xMin="77" yMin="260" xMax="186" yMax="360">
      <contour>
        <pt x="77" y="260" on="1"/>
        <pt x="86" y="360" on="1"/>
        <pt x="186" y="360" on="1"/>
        <pt x="177" y="260" on="1"/>
      </contour>
    </TTGlyph>
    <TTGlyph name="n" xMin="-50" yMin="-240" xMax="398" yMax="825">
      <contour>
        <pt x="-43" y="-159" on="1"/>
        <pt x="-28" y="-163" on="0"/>
        <pt x="10" y="-168" on="0"/>
        <pt x="36" y="-168" on="1"/>
        <pt x="64" y="-168" on="0"/>
        <pt x="93" y="-142" on="0"/>
        <pt x="95" y="-120" on="1"/>
        <pt x="167" y="698" on="1"/>
        <pt x="173" y="763" on="0"/>
        <pt x="240" y="825" on="0"/>
        <pt x="305" y="825" on="1"/>
        <pt x="337" y="825" on="0"/>
        <pt x="383" y="818" on="0"/>
        <pt x="398" y="815" on="1"/>
        <pt x="392" y="744" on="1"/>
        <pt x="376" y="748" on="0"/>
        <pt x="338" y="753" on="0"/>
        <pt x="311" y="753" on="1"/>
        <pt x="285" y="753" on="0"/>
        <pt x="254" y="727" on="0"/>
        <pt x="252" y="705" on="1"/>
        <pt x="181" y="-113" on="1"/>
        <pt x="178" y="-149" on="0"/>
        <pt x="155" y="-198" on="0"/>
        <pt x="119" y="-227" on="0"/>
        <pt x="71" y="-240" on="0"/>
        <pt x="43" y="-240" on="1"/>
        <pt x="11" y="-240" on="0"/>
        <pt x="-35" y="-233" on="0"/>
        <pt x="-50" y="-230" on="1"/>
      </contour>
    </TTGlyph>
    <TTGlyph name="nine" xMin="77" yMin="260" xMax="186" yMax="360">
      <contour>
        <pt x="77" y="260" on="1"/>
        <pt x="86" y="360" on="1"/>
        <pt x="186" y="360" on="1"/>
        <pt x="177" y="260" on="1"/>
      </contour>
    </TTGlyph>
    <TTGlyph name="notequal" xMin="77" yMin="260" xMax="186" yMax="360">
      <contour>
        <pt x="77" y="260" on="1"/>
        <pt x="86" y="360" on="1"/>
        <pt x="186" y="360" on="1"/>
        <pt x="177" y="260" on="1"/>
      </contour>
    </TTGlyph>
    <TTGlyph name="ntilde" xMin="77" yMin="260" xMax="186" yMax="360">
      <contour>
        <pt x="77" y="260" on="1"/>
        <pt x="86" y="360" on="1"/>
        <pt x="186" y="360" on="1"/>
        <pt x="177" y="260" on="1"/>
      </contour>
    </TTGlyph>
    <TTGlyph name="numbersign" xMin="15" yMin="0" xMax="475" yMax="700">
      <contour>
        <pt x="15" y="0" on="1"/>
        <pt x="254" y="700" on="1"/>
        <pt x="365" y="700" on="1"/>
        <pt x="475" y="0" on="1"/>
      </contour>
      <contour>
        <pt x="304" y="627" on="1"/>
        <pt x="129" y="73" on="1"/>
        <pt x="377" y="73" on="1"/>
      </contour>
    </TTGlyph>
    <TTGlyph name="o" xMin="73" yMin="128" xMax="507" yMax="620">
      <contour>
        <pt x="327" y="261" on="1"/>
        <pt x="507" y="395" on="1"/>
        <pt x="498" y="291" on="1"/>
        <pt x="272" y="128" on="1"/>
        <pt x="73" y="291" on="1"/>
        <pt x="82" y="393" on="1"/>
        <pt x="240" y="257" on="1"/>
        <pt x="272" y="620" on="1"/>
        <pt x="358" y="620" on="1"/>
      </contour>
    </TTGlyph>
    <TTGlyph name="oacute" xMin="77" yMin="260" xMax="186" yMax="360">
      <contour>
        <pt x="77" y="260" on="1"/>
        <pt x="86" y="360" on="1"/>
        <pt x="186" y="360" on="1"/>
        <pt x="177" y="260" on="1"/>
      </contour>
    </TTGlyph>
    <TTGlyph name="ocircumflex" xMin="77" yMin="260" xMax="186" yMax="360">
      <contour>
        <pt x="77" y="260" on="1"/>
        <pt x="86" y="360" on="1"/>
        <pt x="186" y="360" on="1"/>
        <pt x="177" y="260" on="1"/>
      </contour>
    </TTGlyph>
    <TTGlyph name="odieresis" xMin="77" yMin="260" xMax="186" yMax="360">
      <contour>
        <pt x="77" y="260" on="1"/>
        <pt x="86" y="360" on="1"/>
        <pt x="186" y="360" on="1"/>
        <pt x="177" y="260" on="1"/>
      </contour>
    </TTGlyph>
    <TTGlyph name="oe" xMin="77" yMin="260" xMax="186" yMax="360">
      <contour>
        <pt x="77" y="260" on="1"/>
        <pt x="86" y="360" on="1"/>
        <pt x="186" y="360" on="1"/>
        <pt x="177" y="260" on="1"/>
      </contour>
    </TTGlyph>
    <TTGlyph name="ogonek" xMin="77" yMin="260" xMax="186" yMax="360">
      <contour>
        <pt x="77" y="260" on="1"/>
        <pt x="86" y="360" on="1"/>
        <pt x="186" y="360" on="1"/>
        <pt x="177" y="260" on="1"/>
      </contour>
    </TTGlyph>
    <TTGlyph name="ograve" xMin="77" yMin="260" xMax="186" yMax="360">
      <contour>
        <pt x="77" y="260" on="1"/>
        <pt x="86" y="360" on="1"/>
        <pt x="186" y="360" on="1"/>
        <pt x="177" y="260" on="1"/>
      </contour>
    </TTGlyph>
    <TTGlyph name="one" xMin="77" yMin="260" xMax="186" yMax="360">
      <contour>
        <pt x="77" y="260" on="1"/>
        <pt x="86" y="360" on="1"/>
        <pt x="186" y="360" on="1"/>
        <pt x="177" y="260" on="1"/>
      </contour>
    </TTGlyph>
    <TTGlyph name="onehalf" xMin="77" yMin="260" xMax="186" yMax="360">
      <contour>
        <pt x="77" y="260" on="1"/>
        <pt x="86" y="360" on="1"/>
        <pt x="186" y="360" on="1"/>
        <pt x="177" y="260" on="1"/>
      </contour>
    </TTGlyph>
    <TTGlyph name="onequarter" xMin="77" yMin="260" xMax="186" yMax="360">
      <contour>
        <pt x="77" y="260" on="1"/>
        <pt x="86" y="360" on="1"/>
        <pt x="186" y="360" on="1"/>
        <pt x="177" y="260" on="1"/>
      </contour>
    </TTGlyph>
    <TTGlyph name="onesuperior" xMin="77" yMin="260" xMax="186" yMax="360">
      <contour>
        <pt x="77" y="260" on="1"/>
        <pt x="86" y="360" on="1"/>
        <pt x="186" y="360" on="1"/>
        <pt x="177" y="260" on="1"/>
      </contour>
    </TTGlyph>
    <TTGlyph name="ordfeminine" xMin="77" yMin="260" xMax="186" yMax="360">
      <contour>
        <pt x="77" y="260" on="1"/>
        <pt x="86" y="360" on="1"/>
        <pt x="186" y="360" on="1"/>
        <pt x="177" y="260" on="1"/>
      </contour>
    </TTGlyph>
    <TTGlyph name="ordmasculine" xMin="77" yMin="260" xMax="186" yMax="360">
      <contour>
        <pt x="77" y="260" on="1"/>
        <pt x="86" y="360" on="1"/>
        <pt x="186" y="360" on="1"/>
        <pt x="177" y="260" on="1"/>
      </contour>
    </TTGlyph>
    <TTGlyph name="oslash" xMin="77" yMin="260" xMax="186" yMax="360">
      <contour>
        <pt x="77" y="260" on="1"/>
        <pt x="86" y="360" on="1"/>
        <pt x="186" y="360" on="1"/>
        <pt x="177" y="260" on="1"/>
      </contour>
    </TTGlyph>
    <TTGlyph name="otilde" xMin="77" yMin="260" xMax="186" yMax="360">
      <contour>
        <pt x="77" y="260" on="1"/>
        <pt x="86" y="360" on="1"/>
        <pt x="186" y="360" on="1"/>
        <pt x="177" y="260" on="1"/>
      </contour>
    </TTGlyph>
    <TTGlyph name="p" xMin="51" yMin="158" xMax="546" yMax="583">
      <contour>
        <pt x="179" y="329" on="1"/>
        <pt x="299" y="158" on="1"/>
        <pt x="195" y="158" on="1"/>
        <pt x="51" y="370" on="1"/>
        <pt x="233" y="583" on="1"/>
        <pt x="340" y="583" on="1"/>
        <pt x="187" y="411" on="1"/>
        <pt x="546" y="411" on="1"/>
        <pt x="539" y="329" on="1"/>
      </contour>
    </TTGlyph>
    <TTGlyph name="paragraph" xMin="91" yMin="-175" xMax="491" yMax="707">
      <contour>
        <pt x="425" y="-43" on="1"/>
        <pt x="422" y="-71" on="0"/>
        <pt x="405" y="-119" on="0"/>
        <pt x="374" y="-155" on="0"/>
        <pt x="327" y="-175" on="0"/>
        <pt x="293" y="-175" on="1"/>
        <pt x="270" y="-175" on="0"/>
        <pt x="228" y="-172" on="0"/>
        <pt x="208" y="-170" on="1"/>
        <pt x="214" y="-99" on="1"/>
        <pt x="230" y="-101" on="0"/>
        <pt x="274" y="-103" on="0"/>
        <pt x="286" y="-103" on="1"/>
        <pt x="311" y="-103" on="0"/>
        <pt x="342" y="-74" on="0"/>
        <pt x="345" y="-48" on="1"/>
        <pt x="411" y="700" on="1"/>
        <pt x="491" y="700" on="1"/>
      </contour>
      <contour>
        <pt x="295" y="0" on="1"/>
        <pt x="213" y="0" on="1"/>
        <pt x="245" y="374" on="1"/>
        <pt x="221" y="374" on="1"/>
        <pt x="196" y="374" on="0"/>
        <pt x="149" y="385" on="0"/>
        <pt x="113" y="416" on="0"/>
        <pt x="91" y="471" on="0"/>
        <pt x="91" y="514" on="1"/>
        <pt x="91" y="566" on="0"/>
        <pt x="119" y="639" on="0"/>
        <pt x="165" y="686" on="0"/>
        <pt x="223" y="707" on="0"/>
        <pt x="254" y="707" on="1"/>
        <pt x="274" y="707" on="0"/>
        <pt x="312" y="706" on="0"/>
        <pt x="326" y="704" on="1"/>
        <pt x="343" y="702" on="0"/>
        <pt x="358" y="700" on="1"/>
        <pt x="352" y="630" on="1"/>
        <pt x="332" y="632" on="0"/>
        <pt x="295" y="636" on="0"/>
        <pt x="280" y="636" on="1"/>
        <pt x="217" y="636" on="0"/>
        <pt x="167" y="581" on="0"/>
        <pt x="167" y="511" on="1"/>
        <pt x="167" y="483" on="0"/>
        <pt x="200" y="444" on="0"/>
        <pt x="232" y="444" on="1"/>
        <pt x="333" y="444" on="1"/>
      </contour>
    </TTGlyph>
    <TTGlyph name="parenleft" xMin="118" yMin="610" xMax="221" yMax="700">
      <contour>
        <pt x="118" y="610" on="1"/>
        <pt x="126" y="700" on="1"/>
        <pt x="221" y="700" on="1"/>
        <pt x="213" y="610" on="1"/>
      </contour>
    </TTGlyph>
    <TTGlyph name="parenright" xMin="81" yMin="543" xMax="272" yMax="747">
      <contour>
        <pt x="271" y="645" on="1"/>
        <pt x="267" y="601" on="0"/>
        <pt x="214" y="543" on="0"/>
        <pt x="166" y="543" on="1"/>
        <pt x="128" y="543" on="0"/>
        <pt x="81" y="596" on="0"/>
        <pt x="81" y="634" on="1"/>
        <pt x="81" y="682" on="0"/>
        <pt x="135" y="747" on="0"/>
        <pt x="184" y="747" on="1"/>
        <pt x="225" y="747" on="0"/>
        <pt x="272" y="697" on="0"/>
        <pt x="272" y="657" on="1"/>
        <pt x="272" y="654" on="0"/>
        <pt x="271" y="648" on="0"/>
      </contour>
      <contour>
        <pt x="213" y="655" on="1"/>
        <pt x="213" y="672" on="0"/>
        <pt x="199" y="695" on="0"/>
        <pt x="179" y="695" on="1"/>
        <pt x="155" y="695" on="0"/>
        <pt x="138" y="659" on="0"/>
        <pt x="138" y="639" on="1"/>
        <pt x="138" y="623" on="0"/>
        <pt x="151" y="597" on="0"/>
        <pt x="171" y="597" on="1"/>
        <pt x="196" y="597" on="0"/>
        <pt x="211" y="627" on="0"/>
        <pt x="213" y="646" on="1"/>
      </contour>
    </TTGlyph>
    <TTGlyph name="partialdiff" xMin="77" yMin="260" xMax="186" yMax="360">
      <contour>
        <pt x="77" y="260" on="1"/>
        <pt x="86" y="360" on="1"/>
        <pt x="186" y="360" on="1"/>
        <pt x="177" y="260" on="1"/>
      </contour>
    </TTGlyph>
    <TTGlyph name="percent" xMin="60" yMin="0" xMax="450" yMax="700">
      <contour>
        <pt x="280" y="0" on="1"/>
        <pt x="168" y="0" on="1"/>
        <pt x="60" y="350" on="1"/>
        <pt x="231" y="700" on="1"/>
        <pt x="341" y="700" on="1"/>
        <pt x="450" y="350" on="1"/>
      </contour>
      <contour>
        <pt x="282" y="630" on="1"/>
        <pt x="145" y="350" on="1"/>
        <pt x="229" y="70" on="1"/>
        <pt x="365" y="350" on="1"/>
      </contour>
    </TTGlyph>
    <TTGlyph name="period" xMin="70" yMin="0" xMax="198" yMax="500">
      <contour>
        <pt x="70" y="0" on="1"/>
        <pt x="113" y="500" on="1"/>
        <pt x="198" y="500" on="1"/>
        <pt x="155" y="0" on="1"/>
      </contour>
    </TTGlyph>
    <TTGlyph name="periodcentered" xMin="77" yMin="260" xMax="186" yMax="360">
      <contour>
        <pt x="77" y="260" on="1"/>
        <pt x="86" y="360" on="1"/>
        <pt x="186" y="360" on="1"/>
        <pt x="177" y="260" on="1"/>
      </contour>
    </TTGlyph>
    <TTGlyph name="perthousand" xMin="77" yMin="260" xMax="186" yMax="360">
      <contour>
        <pt x="77" y="260" on="1"/>
        <pt x="86" y="360" on="1"/>
        <pt x="186" y="360" on="1"/>
        <pt x="177" y="260" on="1"/>
      </contour>
    </TTGlyph>
    <TTGlyph name="pi" xMin="77" yMin="260" xMax="186" yMax="360">
      <contour>
        <pt x="77" y="260" on="1"/>
        <pt x="86" y="360" on="1"/>
        <pt x="186" y="360" on="1"/>
        <pt x="177" y="260" on="1"/>
      </contour>
    </TTGlyph>
    <TTGlyph name="plus" xMin="47" yMin="-180" xMax="232" yMax="60">
      <contour>
        <pt x="228" y="-170" on="1"/>
        <pt x="213" y="-174" on="0"/>
        <pt x="171" y="-180" on="0"/>
        <pt x="153" y="-180" on="1"/>
        <pt x="96" y="-180" on="0"/>
        <pt x="47" y="-142" on="0"/>
        <pt x="47" y="-93" on="1"/>
        <pt x="47" y="-71" on="0"/>
        <pt x="58" y="-28" on="0"/>
        <pt x="77" y="12" on="0"/>
        <pt x="101" y="47" on="0"/>
        <pt x="114" y="60" on="1"/>
        <pt x="183" y="60" on="1"/>
        <pt x="171" y="44" on="0"/>
        <pt x="150" y="5" on="0"/>
        <pt x="135" y="-33" on="0"/>
        <pt x="127" y="-67" on="0"/>
        <pt x="127" y="-78" on="1"/>
        <pt x="127" y="-99" on="0"/>
        <pt x="148" y="-112" on="0"/>
        <pt x="168" y="-112" on="1"/>
        <pt x="179" y="-112" on="0"/>
        <pt x="218" y="-107" on="0"/>
        <pt x="232" y="-105" on="1"/>
      </contour>
    </TTGlyph>
    <TTGlyph name="plusminus" xMin="77" yMin="260" xMax="186" yMax="360">
      <contour>
        <pt x="77" y="260" on="1"/>
        <pt x="86" y="360" on="1"/>
        <pt x="186" y="360" on="1"/>
        <pt x="177" y="260" on="1"/>
      </contour>
    </TTGlyph>
    <TTGlyph name="product" xMin="77" yMin="260" xMax="186" yMax="360">
      <contour>
        <pt x="77" y="260" on="1"/>
        <pt x="86" y="360" on="1"/>
        <pt x="186" y="360" on="1"/>
        <pt x="177" y="260" on="1"/>
      </contour>
    </TTGlyph>
    <TTGlyph name="q" xMin="105" yMin="161" xMax="514" yMax="574">
      <contour>
        <pt x="401" y="322" on="1"/>
        <pt x="446" y="534" on="1"/>
        <pt x="514" y="461" on="1"/>
        <pt x="456" y="196" on="1"/>
        <pt x="187" y="161" on="1"/>
        <pt x="120" y="234" on="1"/>
        <pt x="338" y="258" on="1"/>
        <pt x="105" y="514" on="1"/>
        <pt x="171" y="574" on="1"/>
      </contour>
    </TTGlyph>
    <TTGlyph name="question" xMin="52" yMin="47" xMax="558" yMax="553">
      <contour>
        <pt x="442" y="106" on="1"/>
        <pt x="414" y="85" on="0"/>
        <pt x="344" y="65" on="0"/>
        <pt x="305" y="65" on="1"/>
        <pt x="223" y="65" on="0"/>
        <pt x="167" y="106" on="1"/>
        <pt x="108" y="47" on="1"/>
        <pt x="52" y="103" on="1"/>
        <pt x="115" y="166" on="1"/>
        <pt x="101" y="192" on="0"/>
        <pt x="85" y="259" on="0"/>
        <pt x="85" y="300" on="1"/>
        <pt x="85" y="341" on="0"/>
        <pt x="101" y="407" on="0"/>
        <pt x="115" y="433" on="1"/>
        <pt x="52" y="497" on="1"/>
        <pt x="108" y="553" on="1"/>
        <pt x="167" y="494" on="1"/>
        <pt x="225" y="535" on="0"/>
        <pt x="305" y="535" on="1"/>
        <pt x="344" y="535" on="0"/>
        <pt x="414" y="514" on="0"/>
        <pt x="442" y="494" on="1"/>
        <pt x="502" y="553" on="1"/>
        <pt x="558" y="497" on="1"/>
        <pt x="495" y="433" on="1"/>
        <pt x="509" y="407" on="0"/>
        <pt x="525" y="341" on="0"/>
        <pt x="525" y="300" on="1"/>
        <pt x="525" y="259" on="0"/>
        <pt x="509" y="192" on="0"/>
        <pt x="495" y="166" on="1"/>
        <pt x="558" y="103" on="1"/>
        <pt x="502" y="47" on="1"/>
      </contour>
      <contour>
        <pt x="438" y="300" on="1"/>
        <pt x="438" y="341" on="0"/>
        <pt x="418" y="402" on="0"/>
        <pt x="382" y="444" on="0"/>
        <pt x="333" y="465" on="0"/>
        <pt x="305" y="465" on="1"/>
        <pt x="277" y="465" on="0"/>
        <pt x="228" y="444" on="0"/>
        <pt x="192" y="402" on="0"/>
        <pt x="172" y="341" on="0"/>
        <pt x="172" y="300" on="1"/>
        <pt x="172" y="260" on="0"/>
        <pt x="192" y="198" on="0"/>
        <pt x="228" y="156" on="0"/>
        <pt x="277" y="135" on="0"/>
        <pt x="305" y="135" on="1"/>
        <pt x="333" y="135" on="0"/>
        <pt x="382" y="156" on="0"/>
        <pt x="418" y="198" on="0"/>
        <pt x="438" y="260" on="0"/>
      </contour>
    </TTGlyph>
    <TTGlyph name="questiondown" xMin="77" yMin="260" xMax="186" yMax="360">
      <contour>
        <pt x="77" y="260" on="1"/>
        <pt x="86" y="360" on="1"/>
        <pt x="186" y="360" on="1"/>
        <pt x="177" y="260" on="1"/>
      </contour>
    </TTGlyph>
    <TTGlyph name="quotedbl" xMin="90" yMin="169" xMax="454" yMax="453">
      <contour>
        <pt x="96" y="250" on="1"/>
        <pt x="133" y="271" on="0"/>
        <pt x="179" y="283" on="0"/>
        <pt x="201" y="283" on="1"/>
        <pt x="221" y="283" on="0"/>
        <pt x="256" y="271" on="0"/>
        <pt x="289" y="256" on="0"/>
        <pt x="324" y="244" on="0"/>
        <pt x="343" y="244" on="1"/>
        <pt x="369" y="244" on="0"/>
        <pt x="416" y="266" on="0"/>
        <pt x="439" y="280" on="1"/>
        <pt x="432" y="202" on="1"/>
        <pt x="408" y="187" on="0"/>
        <pt x="355" y="169" on="0"/>
        <pt x="327" y="169" on="1"/>
        <pt x="306" y="169" on="0"/>
        <pt x="272" y="181" on="0"/>
        <pt x="241" y="196" on="0"/>
        <pt x="207" y="208" on="0"/>
        <pt x="186" y="208" on="1"/>
        <pt x="160" y="208" on="0"/>
        <pt x="112" y="186" on="0"/>
        <pt x="90" y="172" on="1"/>
      </contour>
      <contour>
        <pt x="111" y="420" on="1"/>
        <pt x="148" y="441" on="0"/>
        <pt x="194" y="453" on="0"/>
        <pt x="216" y="453" on="1"/>
        <pt x="236" y="453" on="0"/>
        <pt x="271" y="441" on="0"/>
        <pt x="304" y="426" on="0"/>
        <pt x="339" y="414" on="0"/>
        <pt x="358" y="414" on="1"/>
        <pt x="384" y="414" on="0"/>
        <pt x="431" y="436" on="0"/>
        <pt x="454" y="450" on="1"/>
        <pt x="447" y="372" on="1"/>
        <pt x="423" y="357" on="0"/>
        <pt x="370" y="339" on="0"/>
        <pt x="342" y="339" on="1"/>
        <pt x="321" y="339" on="0"/>
        <pt x="287" y="351" on="0"/>
        <pt x="256" y="366" on="0"/>
        <pt x="222" y="378" on="0"/>
        <pt x="201" y="378" on="1"/>
        <pt x="175" y="378" on="0"/>
        <pt x="127" y="356" on="0"/>
        <pt x="104" y="342" on="1"/>
      </contour>
    </TTGlyph>
    <TTGlyph name="quotedblbase" xMin="77" yMin="260" xMax="186" yMax="360">
      <contour>
        <pt x="77" y="260" on="1"/>
        <pt x="86" y="360" on="1"/>
        <pt x="186" y="360" on="1"/>
        <pt x="177" y="260" on="1"/>
      </contour>
    </TTGlyph>
    <TTGlyph name="quotedblleft" xMin="77" yMin="260" xMax="186" yMax="360">
      <contour>
        <pt x="77" y="260" on="1"/>
        <pt x="86" y="360" on="1"/>
        <pt x="186" y="360" on="1"/>
        <pt x="177" y="260" on="1"/>
      </contour>
    </TTGlyph>
    <TTGlyph name="quotedblright" xMin="77" yMin="260" xMax="186" yMax="360">
      <contour>
        <pt x="77" y="260" on="1"/>
        <pt x="86" y="360" on="1"/>
        <pt x="186" y="360" on="1"/>
        <pt x="177" y="260" on="1"/>
      </contour>
    </TTGlyph>
    <TTGlyph name="quoteleft" xMin="77" yMin="260" xMax="186" yMax="360">
      <contour>
        <pt x="77" y="260" on="1"/>
        <pt x="86" y="360" on="1"/>
        <pt x="186" y="360" on="1"/>
        <pt x="177" y="260" on="1"/>
      </contour>
    </TTGlyph>
    <TTGlyph name="quoteright" xMin="77" yMin="260" xMax="186" yMax="360">
      <contour>
        <pt x="77" y="260" on="1"/>
        <pt x="86" y="360" on="1"/>
        <pt x="186" y="360" on="1"/>
        <pt x="177" y="260" on="1"/>
      </contour>
    </TTGlyph>
    <TTGlyph name="quotesinglbase" xMin="77" yMin="260" xMax="186" yMax="360">
      <contour>
        <pt x="77" y="260" on="1"/>
        <pt x="86" y="360" on="1"/>
        <pt x="186" y="360" on="1"/>
        <pt x="177" y="260" on="1"/>
      </contour>
    </TTGlyph>
    <TTGlyph name="quotesingle" xMin="77" yMin="260" xMax="186" yMax="360">
      <contour>
        <pt x="77" y="260" on="1"/>
        <pt x="86" y="360" on="1"/>
        <pt x="186" y="360" on="1"/>
        <pt x="177" y="260" on="1"/>
      </contour>
    </TTGlyph>
    <TTGlyph name="r" xMin="102" yMin="167" xMax="520" yMax="580">
      <contour>
        <pt x="240" y="264" on="1"/>
        <pt x="454" y="240" on="1"/>
        <pt x="376" y="167" on="1"/>
        <pt x="114" y="202" on="1"/>
        <pt x="102" y="468" on="1"/>
        <pt x="184" y="540" on="1"/>
        <pt x="189" y="327" on="1"/>
        <pt x="465" y="580" on="1"/>
        <pt x="520" y="520" on="1"/>
      </contour>
    </TTGlyph>
    <TTGlyph name="radical" xMin="77" yMin="260" xMax="186" yMax="360">
      <contour>
        <pt x="77" y="260" on="1"/>
        <pt x="86" y="360" on="1"/>
        <pt x="186" y="360" on="1"/>
        <pt x="177" y="260" on="1"/>
      </contour>
    </TTGlyph>
    <TTGlyph name="registered" xMin="77" yMin="260" xMax="186" yMax="360">
      <contour>
        <pt x="77" y="260" on="1"/>
        <pt x="86" y="360" on="1"/>
        <pt x="186" y="360" on="1"/>
        <pt x="177" y="260" on="1"/>
      </contour>
    </TTGlyph>
    <TTGlyph name="ring" xMin="77" yMin="260" xMax="186" yMax="360">
      <contour>
        <pt x="77" y="260" on="1"/>
        <pt x="86" y="360" on="1"/>
        <pt x="186" y="360" on="1"/>
        <pt x="177" y="260" on="1"/>
      </contour>
    </TTGlyph>
    <TTGlyph name="s" xMin="80" yMin="0" xMax="741" yMax="700">
      <contour>
        <pt x="80" y="0" on="1"/>
        <pt x="141" y="700" on="1"/>
        <pt x="741" y="700" on="1"/>
        <pt x="680" y="0" on="1"/>
      </contour>
    </TTGlyph>
    <TTGlyph name="scaron" xMin="77" yMin="260" xMax="186" yMax="360">
      <contour>
        <pt x="77" y="260" on="1"/>
        <pt x="86" y="360" on="1"/>
        <pt x="186" y="360" on="1"/>
        <pt x="177" y="260" on="1"/>
      </contour>
    </TTGlyph>
    <TTGlyph name="section" xMin="77" yMin="260" xMax="186" yMax="360">
      <contour>
        <pt x="77" y="260" on="1"/>
        <pt x="86" y="360" on="1"/>
        <pt x="186" y="360" on="1"/>
        <pt x="177" y="260" on="1"/>
      </contour>
    </TTGlyph>
    <TTGlyph name="semicolon" xMin="77" yMin="260" xMax="186" yMax="360">
      <contour>
        <pt x="77" y="260" on="1"/>
        <pt x="86" y="360" on="1"/>
        <pt x="186" y="360" on="1"/>
        <pt x="177" y="260" on="1"/>
      </contour>
    </TTGlyph>
    <TTGlyph name="seven" xMin="77" yMin="260" xMax="186" yMax="360">
      <contour>
        <pt x="77" y="260" on="1"/>
        <pt x="86" y="360" on="1"/>
        <pt x="186" y="360" on="1"/>
        <pt x="177" y="260" on="1"/>
      </contour>
    </TTGlyph>
    <TTGlyph name="six" xMin="77" yMin="260" xMax="186" yMax="360">
      <contour>
        <pt x="77" y="260" on="1"/>
        <pt x="86" y="360" on="1"/>
        <pt x="186" y="360" on="1"/>
        <pt x="177" y="260" on="1"/>
      </contour>
    </TTGlyph>
    <TTGlyph name="slash" xMin="-103" yMin="-100" xMax="375" yMax="810">
      <contour>
        <pt x="-23" y="-100" on="1"/>
        <pt x="-103" y="-100" on="1"/>
        <pt x="295" y="810" on="1"/>
        <pt x="375" y="810" on="1"/>
      </contour>
    </TTGlyph>
    <TTGlyph name="sterling" xMin="77" yMin="260" xMax="186" yMax="360">
      <contour>
        <pt x="77" y="260" on="1"/>
        <pt x="86" y="360" on="1"/>
        <pt x="186" y="360" on="1"/>
        <pt x="177" y="260" on="1"/>
      </contour>
    </TTGlyph>
    <TTGlyph name="summation" xMin="77" yMin="260" xMax="186" yMax="360">
      <contour>
        <pt x="77" y="260" on="1"/>
        <pt x="86" y="360" on="1"/>
        <pt x="186" y="360" on="1"/>
        <pt x="177" y="260" on="1"/>
      </contour>
    </TTGlyph>
    <TTGlyph name="t" xMin="65" yMin="-170" xMax="754" yMax="850">
      <contour>
        <pt x="65" y="-170" on="1"/>
        <pt x="154" y="850" on="1"/>
        <pt x="754" y="850" on="1"/>
        <pt x="665" y="-170" on="1"/>
      </contour>
    </TTGlyph>
    <TTGlyph name="thorn" xMin="77" yMin="260" xMax="186" yMax="360">
      <contour>
        <pt x="77" y="260" on="1"/>
        <pt x="86" y="360" on="1"/>
        <pt x="186" y="360" on="1"/>
        <pt x="177" y="260" on="1"/>
      </contour>
    </TTGlyph>
    <TTGlyph name="three" xMin="77" yMin="260" xMax="186" yMax="360">
      <contour>
        <pt x="77" y="260" on="1"/>
        <pt x="86" y="360" on="1"/>
        <pt x="186" y="360" on="1"/>
        <pt x="177" y="260" on="1"/>
      </contour>
    </TTGlyph>
    <TTGlyph name="threequarters" xMin="77" yMin="260" xMax="186" yMax="360">
      <contour>
        <pt x="77" y="260" on="1"/>
        <pt x="86" y="360" on="1"/>
        <pt x="186" y="360" on="1"/>
        <pt x="177" y="260" on="1"/>
      </contour>
    </TTGlyph>
    <TTGlyph name="threesuperior" xMin="77" yMin="260" xMax="186" yMax="360">
      <contour>
        <pt x="77" y="260" on="1"/>
        <pt x="86" y="360" on="1"/>
        <pt x="186" y="360" on="1"/>
        <pt x="177" y="260" on="1"/>
      </contour>
    </TTGlyph>
    <TTGlyph name="tilde" xMin="77" yMin="260" xMax="186" yMax="360">
      <contour>
        <pt x="77" y="260" on="1"/>
        <pt x="86" y="360" on="1"/>
        <pt x="186" y="360" on="1"/>
        <pt x="177" y="260" on="1"/>
      </contour>
    </TTGlyph>
    <TTGlyph name="trademark" xMin="77" yMin="260" xMax="186" yMax="360">
      <contour>
        <pt x="77" y="260" on="1"/>
        <pt x="86" y="360" on="1"/>
        <pt x="186" y="360" on="1"/>
        <pt x="177" y="260" on="1"/>
      </contour>
    </TTGlyph>
    <TTGlyph name="two" xMin="77" yMin="260" xMax="186" yMax="360">
      <contour>
        <pt x="77" y="260" on="1"/>
        <pt x="86" y="360" on="1"/>
        <pt x="186" y="360" on="1"/>
        <pt x="177" y="260" on="1"/>
      </contour>
    </TTGlyph>
    <TTGlyph name="twosuperior" xMin="77" yMin="260" xMax="186" yMax="360">
      <contour>
        <pt x="77" y="260" on="1"/>
        <pt x="86" y="360" on="1"/>
        <pt x="186" y="360" on="1"/>
        <pt x="177" y="260" on="1"/>
      </contour>
    </TTGlyph>
    <TTGlyph name="u" xMin="76" yMin="-7" xMax="455" yMax="750">
      <contour>
        <pt x="276" y="556" on="1"/>
        <pt x="194" y="556" on="1"/>
        <pt x="245" y="632" on="1"/>
        <pt x="226" y="634" on="0"/>
        <pt x="183" y="635" on="0"/>
        <pt x="158" y="637" on="1"/>
        <pt x="164" y="707" on="1"/>
        <pt x="199" y="705" on="0"/>
        <pt x="261" y="702" on="0"/>
        <pt x="288" y="697" on="1"/>
        <pt x="324" y="750" on="1"/>
        <pt x="406" y="750" on="1"/>
        <pt x="357" y="677" on="1"/>
        <pt x="405" y="655" on="0"/>
        <pt x="455" y="559" on="0"/>
        <pt x="455" y="465" on="1"/>
        <pt x="455" y="462" on="0"/>
        <pt x="454" y="440" on="0"/>
        <pt x="453" y="415" on="0"/>
        <pt x="451" y="393" on="0"/>
        <pt x="451" y="389" on="1"/>
        <pt x="441" y="265" on="0"/>
        <pt x="412" y="111" on="0"/>
        <pt x="363" y="24" on="0"/>
        <pt x="290" y="-7" on="0"/>
        <pt x="234" y="-7" on="1"/>
        <pt x="200" y="-7" on="0"/>
        <pt x="142" y="13" on="0"/>
        <pt x="100" y="57" on="0"/>
        <pt x="76" y="128" on="0"/>
        <pt x="76" y="178" on="1"/>
        <pt x="76" y="188" on="0"/>
        <pt x="77" y="209" on="0"/>
        <pt x="78" y="220" on="1"/>
        <pt x="83" y="274" on="0"/>
        <pt x="99" y="364" on="0"/>
        <pt x="138" y="428" on="0"/>
        <pt x="206" y="464" on="0"/>
        <pt x="261" y="464" on="1"/>
        <pt x="298" y="464" on="0"/>
        <pt x="351" y="444" on="0"/>
        <pt x="368" y="433" on="1"/>
        <pt x="369" y="445" on="0"/>
        <pt x="369" y="463" on="0"/>
        <pt x="369" y="466" on="1"/>
        <pt x="369" y="531" on="0"/>
        <pt x="343" y="598" on="0"/>
        <pt x="315" y="614" on="1"/>
      </contour>
      <contour>
        <pt x="262" y="392" on="1"/>
        <pt x="235" y="392" on="0"/>
        <pt x="200" y="367" on="0"/>
        <pt x="178" y="320" on="0"/>
        <pt x="166" y="253" on="0"/>
        <pt x="162" y="211" on="1"/>
        <pt x="161" y="200" on="0"/>
        <pt x="160" y="180" on="0"/>
        <pt x="160" y="171" on="1"/>
        <pt x="160" y="120" on="0"/>
        <pt x="197" y="65" on="0"/>
        <pt x="246" y="65" on="1"/>
        <pt x="269" y="65" on="0"/>
        <pt x="304" y="85" on="0"/>
        <pt x="332" y="148" on="0"/>
        <pt x="354" y="266" on="0"/>
        <pt x="363" y="364" on="1"/>
        <pt x="354" y="369" on="0"/>
        <pt x="301" y="392" on="0"/>
      </contour>
    </TTGlyph>
    <TTGlyph name="uacute" xMin="77" yMin="260" xMax="186" yMax="360">
      <contour>
        <pt x="77" y="260" on="1"/>
        <pt x="86" y="360" on="1"/>
        <pt x="186" y="360" on="1"/>
        <pt x="177" y="260" on="1"/>
      </contour>
    </TTGlyph>
    <TTGlyph name="ucircumflex" xMin="77" yMin="260" xMax="186" yMax="360">
      <contour>
        <pt x="77" y="260" on="1"/>
        <pt x="86" y="360" on="1"/>
        <pt x="186" y="360" on="1"/>
        <pt x="177" y="260" on="1"/>
      </contour>
    </TTGlyph>
    <TTGlyph name="udieresis" xMin="77" yMin="260" xMax="186" yMax="360">
      <contour>
        <pt x="77" y="260" on="1"/>
        <pt x="86" y="360" on="1"/>
        <pt x="186" y="360" on="1"/>
        <pt x="177" y="260" on="1"/>
      </contour>
    </TTGlyph>
    <TTGlyph name="ugrave" xMin="77" yMin="260" xMax="186" yMax="360">
      <contour>
        <pt x="77" y="260" on="1"/>
        <pt x="86" y="360" on="1"/>
        <pt x="186" y="360" on="1"/>
        <pt x="177" y="260" on="1"/>
      </contour>
    </TTGlyph>
    <TTGlyph name="underscore" xMin="52" yMin="-175" xMax="463" yMax="707">
      <contour>
        <pt x="452" y="617" on="1"/>
        <pt x="417" y="628" on="0"/>
        <pt x="342" y="637" on="0"/>
        <pt x="315" y="637" on="1"/>
        <pt x="284" y="637" on="0"/>
        <pt x="246" y="627" on="0"/>
        <pt x="224" y="609" on="0"/>
        <pt x="216" y="582" on="0"/>
        <pt x="214" y="565" on="1"/>
        <pt x="208" y="500" on="1"/>
        <pt x="463" y="500" on="1"/>
        <pt x="416" y="-43" on="1"/>
        <pt x="414" y="-71" on="0"/>
        <pt x="394" y="-119" on="0"/>
        <pt x="360" y="-155" on="0"/>
        <pt x="311" y="-175" on="0"/>
        <pt x="280" y="-175" on="1"/>
        <pt x="256" y="-175" on="0"/>
        <pt x="214" y="-172" on="0"/>
        <pt x="194" y="-170" on="1"/>
        <pt x="200" y="-99" on="1"/>
        <pt x="216" y="-101" on="0"/>
        <pt x="261" y="-103" on="0"/>
        <pt x="273" y="-103" on="1"/>
        <pt x="325" y="-103" on="0"/>
        <pt x="330" y="-48" on="1"/>
        <pt x="372" y="427" on="1"/>
        <pt x="202" y="427" on="1"/>
        <pt x="165" y="0" on="1"/>
        <pt x="80" y="0" on="1"/>
        <pt x="117" y="427" on="1"/>
        <pt x="52" y="427" on="1"/>
        <pt x="58" y="500" on="1"/>
        <pt x="123" y="500" on="1"/>
        <pt x="128" y="558" on="1"/>
        <pt x="131" y="593" on="0"/>
        <pt x="153" y="649" on="0"/>
        <pt x="195" y="687" on="0"/>
        <pt x="261" y="707" on="0"/>
        <pt x="308" y="707" on="1"/>
        <pt x="340" y="707" on="0"/>
        <pt x="420" y="696" on="0"/>
        <pt x="459" y="687" on="1"/>
      </contour>
    </TTGlyph>
    <TTGlyph name="uni00A0" xMin="77" yMin="260" xMax="186" yMax="360">
      <contour>
        <pt x="77" y="260" on="1"/>
        <pt x="86" y="360" on="1"/>
        <pt x="186" y="360" on="1"/>
        <pt x="177" y="260" on="1"/>
      </contour>
    </TTGlyph>
    <TTGlyph name="uni00AD" xMin="99" yMin="275" xMax="430" yMax="350">
      <contour>
        <pt x="99" y="275" on="1"/>
        <pt x="105" y="350" on="1"/>
        <pt x="430" y="350" on="1"/>
        <pt x="424" y="275" on="1"/>
      </contour>
    </TTGlyph>
    <TTGlyph name="uni2219" xMin="77" yMin="260" xMax="186" yMax="360">
      <contour>
        <pt x="77" y="260" on="1"/>
        <pt x="86" y="360" on="1"/>
        <pt x="186" y="360" on="1"/>
        <pt x="177" y="260" on="1"/>
      </contour>
    </TTGlyph>
    <TTGlyph name="uni2224" xMin="77" yMin="260" xMax="186" yMax="360">
      <contour>
        <pt x="77" y="260" on="1"/>
        <pt x="86" y="360" on="1"/>
        <pt x="186" y="360" on="1"/>
        <pt x="177" y="260" on="1"/>
      </contour>
    </TTGlyph>
    <TTGlyph name="uni25AF" xMin="50" yMin="0" xMax="450" yMax="705">
      <contour>
        <pt x="50" y="705" on="1"/>
        <pt x="450" y="705" on="1"/>
        <pt x="450" y="0" on="1"/>
        <pt x="50" y="0" on="1"/>
      </contour>
      <contour>
        <pt x="400" y="50" on="1"/>
        <pt x="400" y="655" on="1"/>
        <pt x="100" y="655" on="1"/>
        <pt x="100" y="50" on="1"/>
      </contour>
    </TTGlyph>
    <TTGlyph name="v" xMin="51" yMin="-3" xMax="274" yMax="700">
      <contour>
        <pt x="225" y="5" on="1"/>
        <pt x="214" y="3" on="0"/>
        <pt x="184" y="-3" on="0"/>
        <pt x="164" y="-3" on="1"/>
        <pt x="150" y="-3" on="0"/>
        <pt x="122" y="6" on="0"/>
        <pt x="101" y="27" on="0"/>
        <pt x="88" y="63" on="0"/>
        <pt x="88" y="90" on="1"/>
        <pt x="88" y="95" on="0"/>
        <pt x="89" y="116" on="0"/>
        <pt x="90" y="122" on="1"/>
        <pt x="109" y="335" on="1"/>
        <pt x="51" y="300" on="1"/>
        <pt x="58" y="378" on="1"/>
        <pt x="116" y="413" on="1"/>
        <pt x="141" y="700" on="1"/>
        <pt x="226" y="700" on="1"/>
        <pt x="206" y="468" on="1"/>
        <pt x="274" y="510" on="1"/>
        <pt x="267" y="430" on="1"/>
        <pt x="199" y="389" on="1"/>
        <pt x="177" y="137" on="1"/>
        <pt x="176" y="127" on="0"/>
        <pt x="174" y="106" on="0"/>
        <pt x="174" y="103" on="1"/>
        <pt x="174" y="85" on="0"/>
        <pt x="187" y="70" on="0"/>
        <pt x="204" y="70" on="1"/>
        <pt x="212" y="70" on="0"/>
        <pt x="227" y="74" on="0"/>
        <pt x="231" y="75" on="1"/>
      </contour>
    </TTGlyph>
    <TTGlyph name="w" xMin="55" yMin="-170" xMax="450" yMax="700">
      <contour>
        <pt x="55" y="-170" on="1"/>
        <pt x="131" y="700" on="1"/>
        <pt x="216" y="700" on="1"/>
        <pt x="194" y="455" on="1"/>
        <pt x="214" y="478" on="0"/>
        <pt x="272" y="507" on="0"/>
        <pt x="314" y="507" on="1"/>
        <pt x="389" y="507" on="0"/>
        <pt x="450" y="415" on="0"/>
        <pt x="450" y="334" on="1"/>
        <pt x="450" y="322" on="0"/>
        <pt x="449" y="286" on="0"/>
        <pt x="447" y="272" on="1"/>
        <pt x="440" y="196" on="0"/>
        <pt x="411" y="89" on="0"/>
        <pt x="356" y="23" on="0"/>
        <pt x="272" y="-7" on="0"/>
        <pt x="210" y="-7" on="1"/>
        <pt x="196" y="-7" on="0"/>
        <pt x="168" y="-5" on="0"/>
        <pt x="154" y="-3" on="1"/>
        <pt x="140" y="-170" on="1"/>
      </contour>
      <contour>
        <pt x="294" y="435" on="1"/>
        <pt x="265" y="435" on="0"/>
        <pt x="224" y="409" on="0"/>
        <pt x="197" y="369" on="0"/>
        <pt x="183" y="322" on="0"/>
        <pt x="181" y="300" on="1"/>
        <pt x="160" y="68" on="1"/>
        <pt x="184" y="65" on="0"/>
        <pt x="227" y="65" on="1"/>
        <pt x="299" y="65" on="0"/>
        <pt x="363" y="197" on="0"/>
        <pt x="363" y="332" on="1"/>
        <pt x="363" y="384" on="0"/>
        <pt x="332" y="435" on="0"/>
      </contour>
    </TTGlyph>
    <TTGlyph name="x" xMin="54" yMin="-7" xMax="420" yMax="714">
      <contour>
        <pt x="355" y="165" on="1"/>
        <pt x="355" y="76" on="0"/>
        <pt x="269" y="-7" on="0"/>
        <pt x="173" y="-7" on="1"/>
        <pt x="130" y="-7" on="0"/>
        <pt x="71" y="3" on="0"/>
        <pt x="54" y="8" on="1"/>
        <pt x="61" y="81" on="1"/>
        <pt x="70" y="79" on="0"/>
        <pt x="98" y="74" on="0"/>
        <pt x="131" y="69" on="0"/>
        <pt x="168" y="65" on="0"/>
        <pt x="186" y="65" on="1"/>
        <pt x="210" y="65" on="0"/>
        <pt x="241" y="83" on="0"/>
        <pt x="259" y="110" on="0"/>
        <pt x="266" y="141" on="0"/>
        <pt x="266" y="155" on="1"/>
        <pt x="266" y="182" on="0"/>
        <pt x="241" y="209" on="0"/>
        <pt x="209" y="217" on="1"/>
        <pt x="140" y="233" on="0"/>
        <pt x="80" y="298" on="0"/>
        <pt x="80" y="343" on="1"/>
        <pt x="80" y="433" on="0"/>
        <pt x="175" y="507" on="0"/>
        <pt x="259" y="507" on="1"/>
        <pt x="296" y="507" on="0"/>
        <pt x="353" y="496" on="0"/>
        <pt x="367" y="492" on="1"/>
        <pt x="361" y="419" on="1"/>
        <pt x="349" y="422" on="0"/>
        <pt x="325" y="428" on="0"/>
        <pt x="299" y="432" on="0"/>
        <pt x="268" y="435" on="0"/>
        <pt x="248" y="435" on="1"/>
        <pt x="224" y="435" on="0"/>
        <pt x="193" y="421" on="0"/>
        <pt x="175" y="398" on="0"/>
        <pt x="168" y="369" on="0"/>
        <pt x="168" y="354" on="1"/>
        <pt x="168" y="330" on="0"/>
        <pt x="196" y="303" on="0"/>
        <pt x="227" y="297" on="1"/>
        <pt x="297" y="283" on="0"/>
        <pt x="355" y="216" on="0"/>
      </contour>
      <contour>
        <pt x="204" y="714" on="1"/>
        <pt x="257" y="630" on="1"/>
        <pt x="324" y="714" on="1"/>
        <pt x="420" y="714" on="1"/>
        <pt x="298" y="579" on="1"/>
        <pt x="210" y="579" on="1"/>
        <pt x="107" y="714" on="1"/>
      </contour>
    </TTGlyph>
    <TTGlyph name="y" xMin="68" yMin="-175" xMax="461" yMax="715">
      <contour>
        <pt x="233" y="580" on="1"/>
        <pt x="349" y="715" on="1"/>
        <pt x="458" y="715" on="1"/>
        <pt x="319" y="580" on="1"/>
      </contour>
      <contour>
        <pt x="269" y="-44" on="1"/>
        <pt x="259" y="-73" on="0"/>
        <pt x="237" y="-122" on="0"/>
        <pt x="206" y="-156" on="0"/>
        <pt x="163" y="-175" on="0"/>
        <pt x="133" y="-175" on="1"/>
        <pt x="117" y="-175" on="0"/>
        <pt x="86" y="-171" on="0"/>
        <pt x="77" y="-169" on="1"/>
        <pt x="83" y="-96" on="1"/>
        <pt x="94" y="-98" on="0"/>
        <pt x="120" y="-100" on="0"/>
        <pt x="135" y="-100" on="1"/>
        <pt x="150" y="-100" on="0"/>
        <pt x="171" y="-77" on="0"/>
        <pt x="179" y="-55" on="1"/>
        <pt x="200" y="0" on="1"/>
        <pt x="180" y="0" on="1"/>
        <pt x="68" y="500" on="1"/>
        <pt x="158" y="500" on="1"/>
        <pt x="239" y="87" on="1"/>
        <pt x="372" y="500" on="1"/>
        <pt x="461" y="500" on="1"/>
      </contour>
    </TTGlyph>
    <TTGlyph name="yacute" xMin="77" yMin="260" xMax="186" yMax="360">
      <contour>
        <pt x="77" y="260" on="1"/>
        <pt x="86" y="360" on="1"/>
        <pt x="186" y="360" on="1"/>
        <pt x="177" y="260" on="1"/>
      </contour>
    </TTGlyph>
    <TTGlyph name="ydieresis" xMin="77" yMin="260" xMax="186" yMax="360">
      <contour>
        <pt x="77" y="260" on="1"/>
        <pt x="86" y="360" on="1"/>
        <pt x="186" y="360" on="1"/>
        <pt x="177" y="260" on="1"/>
      </contour>
    </TTGlyph>
    <TTGlyph name="yen" xMin="77" yMin="260" xMax="186" yMax="360">
      <contour>
        <pt x="77" y="260" on="1"/>
        <pt x="86" y="360" on="1"/>
        <pt x="186" y="360" on="1"/>
        <pt x="177" y="260" on="1"/>
      </contour>
    </TTGlyph>
    <TTGlyph name="z" xMin="35" yMin="0" xMax="425" yMax="714">
      <contour>
        <pt x="135" y="74" on="1"/>
        <pt x="339" y="74" on="1"/>
        <pt x="333" y="0" on="1"/>
        <pt x="35" y="0" on="1"/>
        <pt x="41" y="80" on="1"/>
        <pt x="287" y="426" on="1"/>
        <pt x="92" y="426" on="1"/>
        <pt x="98" y="500" on="1"/>
        <pt x="386" y="500" on="1"/>
        <pt x="378" y="411" on="1"/>
      </contour>
      <contour>
        <pt x="209" y="714" on="1"/>
        <pt x="262" y="630" on="1"/>
        <pt x="329" y="714" on="1"/>
        <pt x="425" y="714" on="1"/>
        <pt x="303" y="579" on="1"/>
        <pt x="215" y="579" on="1"/>
        <pt x="112" y="714" on="1"/>
      </contour>
    </TTGlyph>
    <TTGlyph name="zcaron" xMin="77" yMin="260" xMax="186" yMax="360">
      <contour>
        <pt x="77" y="260" on="1"/>
        <pt x="86" y="360" on="1"/>
        <pt x="186" y="360" on="1"/>
        <pt x="177" y="260" on="1"/>
      </contour>
    </TTGlyph>
    <TTGlyph name="zero" xMin="75" yMin="0" xMax="555" yMax="480">
      <contour>
        <pt x="75" y="0" on="1"/>
        <pt x="75" y="480" on="1"/>
        <pt x="315" y="480" on="1"/>
        <pt x="315" y="240" on="1"/>
        <pt x="555" y="240" on="1"/>
        <pt x="555" y="0" on="1"/>
      </contour>
      <contour>
        <pt x="435" y="360" on="1"/>
        <pt x="435" y="480" on="1"/>
        <pt x="555" y="480" on="1"/>
        <pt x="555" y="360" on="1"/>
      </contour>
    </TTGlyph>
</ttFont>
